<?xml version="1.0" encoding="utf-8"?>
<!-- Generator: Adobe Illustrator 18.0.0, SVG Export Plug-In . SVG Version: 6.00 Build 0)  -->
<!DOCTYPE svg PUBLIC "-//W3C//DTD SVG 1.1//EN" "http://www.w3.org/Graphics/SVG/1.1/DTD/svg11.dtd">
<svg version="1.1" id="Слой_1" xmlns="http://www.w3.org/2000/svg" xmlns:xlink="http://www.w3.org/1999/xlink" x="0px" y="0px"
	 viewBox="0 0 813.5 813.5" style="enable-background:new 0 0 813.5 813.5;" xml:space="preserve">
<style type="text/css">
	.st0{fill:none;stroke:#EBE457;stroke-width:7;stroke-miterlimit:10;}
	.st1{fill:#FFFFFF;}
	.st2{fill:none;stroke:#E2A6A6;stroke-width:7;stroke-miterlimit:10;}
	.st3{fill:none;stroke:#4C7EA9;stroke-width:7;stroke-miterlimit:10;}
	.st4{opacity:0.8;fill:#FFFFFF;}
	.st5{fill:none;stroke:#5A68A0;stroke-width:7;stroke-miterlimit:10;}
	.st6{fill:none;stroke:#CA5948;stroke-width:7;stroke-miterlimit:10;}
	.st7{fill:none;stroke:#4BABD8;stroke-width:7;stroke-miterlimit:10;}
	.st8{fill:none;stroke:#B0CCCB;stroke-width:7;stroke-miterlimit:10;}
	.st9{fill:none;stroke:#838382;stroke-width:7;stroke-miterlimit:10;}
	.st10{fill:none;stroke:#79B872;stroke-width:7;stroke-miterlimit:10;}
	.st11{fill:none;stroke:#D78A4B;stroke-width:7;stroke-miterlimit:10;}
	.st12{fill:none;stroke:#528C5D;stroke-width:7;stroke-miterlimit:10;}
	.st13{fill:#FFFFFF;stroke:#FFFFFF;stroke-miterlimit:10;}
	.st14{fill:#528C5D;stroke:#528C5D;stroke-width:7;stroke-miterlimit:10;}
	.st15{fill:none;stroke:#A25980;stroke-width:7;stroke-miterlimit:10;}
	.st16{fill:none;stroke:#9B6144;stroke-width:7;stroke-miterlimit:10;}
	.st17{fill:none;stroke:#595959;stroke-miterlimit:10;}
	.st18{fill:#528C5D;}
	.st19{fill:#976044;}
	.st20{fill:#838382;}
	.st21{fill:#A85882;}
	.st22{fill:#CA5948;}
	.st23{fill:#D78A4B;}
	.st24{fill:#79B872;}
	.st25{fill:#5B69A6;}
	.st26{fill:#F3EB48;}
	.st27{fill:#77B171;}
	.st28{fill:#4F8058;}
	.st29{fill:#D35443;}
	.st30{fill:#51885B;}
	.st31{fill:#AF5686;}
	.st32{fill:#40B3E7;}
	.st33{fill:#5A68A0;}
	.st34{fill:#4BABD8;}
	.st35{fill:#EBE457;}
	.st36{fill:#4D7BA1;}
	.st37{fill:#4E789C;}
	.st38{fill:#838381;}
	.st39{fill:#A25980;}
	.st40{fill:#B0CCCB;}
	.st41{fill:#E2A6A6;}
	.st42{fill:#508459;}
	.st43{font-family:Arial;font-weight:bold;}
	.st44{font-size:0.5em;}
</style>
<g id="lines">
    <g data-line-id="1" data-human="sokolnicheskaya">
        <line class="st6" x1="240.4" y1="565" x2="160.2" y2="644.9"/>
        <line class="st6" x1="298.9" y1="506.5" x2="240.4" y2="565"/>
        <line class="st6" x1="322.1" y1="483.3" x2="298.9" y2="506.5"/>
        <line class="st6" x1="344.5" y1="460.9" x2="322.1" y2="483.3"/>
        <line class="st6" x1="359.9" y1="445.4" x2="344.5" y2="460.9"/>
        <line class="st6" x1="413.1" y1="392.1" x2="359.9" y2="445.4"/>
        <line class="st6" x1="455.8" y1="349.3" x2="413.1" y2="392.1"/>
        <line class="st6" x1="484.7" y1="320.4" x2="455.8" y2="349.3"/>
        <line class="st6" x1="510.3" y1="294.8" x2="484.7" y2="320.4"/>
        <line class="st6" x1="530.2" y1="274.9" x2="510.3" y2="294.8"/>
        <polyline class="st6" points="580.8,201.5 580.8,224.1 530.2,274.9 "/>
    </g>
    <g data-line-id="3" data-human="arbatsko-pokrovskaya">
        <line class="st5" x1="108.3" y1="361" x2="108.3" y2="322.8"/>
        <polyline class="st5" points="130.5,432.8 108.3,410.6 108.3,361 "/>
        <line class="st5" x1="298.3" y1="432.8" x2="130.5" y2="432.8"/>
        <line class="st5" x1="329.1" y1="432.8" x2="298.3" y2="432.8"/>
        <line class="st5" x1="359.3" y1="432.8" x2="329.1" y2="432.8"/>
        <polyline class="st5" points="430.6,410.4 383.9,457.1 359.4,432.5 "/>
        <polyline class="st5" points="559.6,335.4 505.6,335.4 430.6,410.4 "/>
        <polyline class="st5" points="667.2,304.9 636.7,335.4 559.6,335.4 "/>
    </g>
    <g data-line-id="4" data-human="filevskaya">
        <line class="st7" x1="290.9" y1="407.8" x2="353.6" y2="407.8"/>
        <line class="st7" x1="230.8" y1="407.7" x2="290.9" y2="407.8"/>
        <line class="st7" x1="164.7" y1="407.7" x2="230.8" y2="407.7"/>
        <line class="st7" x1="121.9" y1="364.8" x2="164.7" y2="407.7"/>
    </g>
    <g data-line-id="5" data-human="kolcevaya">
        <path class="st16" d="M412,239.2c4.7-0.5,9.4-0.7,14.2-0.7c22.9,0,44.5,5.5,63.6,15.4"/>
        <path class="st16" d="M350.9,260.6c17.9-11.6,38.7-19.1,61-21.4"/>
        <path class="st16" d="M315.3,293.7c9.8-13,21.9-24.2,35.6-33"/>
        <path class="st16" d="M290.4,407.3c-2.1-9.6-3.2-19.6-3.2-29.8c0-31.5,10.5-60.5,28.1-83.9"/>
        <path class="st16" d="M327.7,475.6c-18.3-18.4-31.5-41.9-37.3-68.3"/>
        <path class="st16" d="M376.1,507.2c-18.3-7.1-34.8-18-48.4-31.6"/>
        <path class="st16" d="M451.2,514.3c-8.1,1.5-16.5,2.2-25,2.2c-17.7,0-34.6-3.3-50.1-9.3"/>
        <path class="st16" d="M509.4,488.9c-16.9,12.6-36.7,21.5-58.2,25.4"/>
        <path class="st16" d="M554.7,430.5c-9.6,23.3-25.4,43.5-45.3,58.4"/>
        <path class="st16" d="M561.7,346.6c2.3,10,3.5,20.3,3.5,31c0,18.8-3.7,36.6-10.4,53"/>
        <path class="st16" d="M524.9,279.7c18,18.1,31,41.2,36.8,66.9"/>
        <path class="st16" d="M489.8,253.9c13.1,6.7,24.9,15.5,35.1,25.8"/>
    </g>
    <g data-line-id="7" data-human="tagansko-krasnopresenskaya">
        <line class="st15" x1="716" y1="607.2" x2="586.6" y2="477.9"/>
        <line class="st15" x1="586.6" y1="477.9" x2="550.4" y2="441.7"/>
        <line class="st15" x1="550.4" y1="441.7" x2="490" y2="381.2"/>
        <line class="st15" x1="490" y1="381.2" x2="456.4" y2="347.7"/>
        <polyline class="st15" points="350.7,330 370.3,349.5 458.3,349.5 "/>
        <line class="st15" x1="305.4" y1="284.7" x2="350.7" y2="330"/>
        <line class="st15" x1="284.3" y1="263.5" x2="305.4" y2="284.7"/>
        <line class="st15" x1="266.4" y1="245.7" x2="284.3" y2="263.5"/>
        <line class="st15" x1="249.7" y1="229" x2="266.4" y2="245.7"/>
        <line class="st15" x1="226.1" y1="205.4" x2="249.7" y2="229"/>
    </g>
    <g data-line-id="8" data-human="kalininskaya">
        <line class="st0" x1="559.6" y1="417.4" x2="467.8" y2="417.4"/>
        <line class="st0" x1="590.6" y1="386.4" x2="559.6" y2="417.4"/>
        <line class="st0" x1="641.2" y1="386.3" x2="590.6" y2="386.4"/>
        <line class="st0" x1="690" y1="386.2" x2="641.2" y2="386.3"/>
        <polyline class="st0" points="728.6,361.1 703.6,386.2 690,386.2 "/>
    </g>
    <g data-line-id="9" data-human="serpuhovskaya">
        <line class="st9" x1="450.8" y1="627.2" x2="450.8" y2="652.9"/>
        <line class="st9" x1="448.4" y1="171.5" x2="448.4" y2="113.3"/>
        <line class="st9" x1="423" y1="197.4" x2="443.3" y2="177.1"/>
        <line class="st9" x1="423" y1="274.9" x2="423" y2="237.4"/>
        <line class="st9" x1="359.3" y1="338.5" x2="423" y2="274.9"/>
        <line class="st9" x1="359.4" y1="420.4" x2="359.3" y2="338.5"/>
        <line class="st9" x1="422" y1="482.8" x2="359.4" y2="420.4"/>
        <line class="st9" x1="453" y1="513.7" x2="422" y2="482.8"/>
    </g>
    <g data-line-id="10" data-human="lyublinskaya">
        <polyline class="st10" points="439.8,276.1 461.4,254.4 461.4,219.9 "/>
        <line class="st10" x1="484" y1="320.3" x2="439.8" y2="276.1"/>
        <polyline class="st10" points="563.8,359.9 523.6,359.8 484,320.3 "/>
        <line class="st10" x1="590.8" y1="386.4" x2="563.8" y2="359.9"/>
        <line class="st10" x1="590.8" y1="481.2" x2="590.8" y2="386.4"/>
        <line class="st10" x1="590.8" y1="583.8" x2="590.8" y2="481.2"/>
        <line class="st10" x1="590.8" y1="625.9" x2="590.8" y2="583.8"/>
    </g>
    <g data-line-id="11a" data-human="kakhovskya">
        <line class="st3" x1="486.1" y1="591.2" x2="464.2" y2="591.3"/>
        <line class="st3" x1="551.7" y1="656.7" x2="486.1" y2="591.2"/>
    </g>
    <g data-line-id="12" data-human="butovskaya">
        <line class="st8" x1="326.8" y1="692.9" x2="451.6" y2="692.9"/>
        <line class="st8" x1="297.9" y1="720.9" x2="326.8" y2="692.9"/>
    </g>
    <g data-line-id="14" data-human="mcc">
        <path class="st2" d="M284.7,600.4c-16-10.2-30.9-22.1-44.3-35.4"/>
        <path class="st2" d="M564.6,602.5c-40.2,24.7-87.5,39-138.2,39c-52.1,0-100.7-15.1-141.6-41.1"/>
        <path class="st2" d="M590.7,584.2c-8.3,6.6-17,12.7-26.1,18.3"/>
        <path class="st2" d="M684.3,434.7c-13.3,60.1-47.1,112.5-93.6,149.5"/>
        <path class="st2" d="M690.4,386.2c-0.5,16.6-2.6,32.8-6.1,48.5"/>
        <path class="st2" d="M684.7,322.1c3.8,17.8,5.8,36.3,5.8,55.3c0,2.9,0,5.9-0.1,8.8"/>
        <path class="st2" d="M667.1,268.5c7.7,17,13.6,34.9,17.6,53.6"/>
        <path class="st2" d="M580.8,163c37.2,26.9,67.2,63.2,86.3,105.5"/>
        <path class="st2" d="M536.5,137.2c15.6,7.2,30.4,15.8,44.2,25.8"/>
        <path class="st2" d="M490.3,121c16.1,4,31.5,9.5,46.3,16.2"/>
        <path class="st2" d="M448.2,114.1c14.4,1.2,28.5,3.5,42.1,6.9"/>
        <path class="st2" d="M350.1,124.4c24.1-7.3,49.8-11.2,76.3-11.2c7.3,0,14.6,0.3,21.8,0.9"/>
        <path class="st2" d="M317,136.4c10.5-4.8,21.4-8.9,32.6-12.3"/>
        <path class="st2" d="M225.9,204.5c24.9-28.8,56-52.2,91.1-68.1"/>
        <path class="st2" d="M183.2,273.9c10.8-25.4,25.5-48.8,43.3-69.4"/>
        <path class="st2" d="M163.8,407c-1.1-9.7-1.6-19.6-1.6-29.7c0-36.7,7.5-71.7,21-103.5"/>
        <path class="st2" d="M240.4,565c-41.7-41.3-69.7-96.5-76.6-158"/>
    </g>

</g>


<path class="st1" d="M728.8,368.4c-2,0-3.9-0.8-5.3-2.2c-2.9-2.9-2.9-7.7,0-10.7c1.4-1.4,3.3-2.2,5.3-2.2c2,0,3.9,0.8,5.3,2.2
	c2.9,2.9,2.9,7.7,0,10.7C732.7,367.7,730.8,368.4,728.8,368.4C728.8,368.4,728.8,368.4,728.8,368.4z"/>

<path class="st1" d="M121.6,372.1c-2,0-3.9-0.8-5.3-2.2c-2.9-2.9-2.9-7.7,0-10.7c1.4-1.4,3.3-2.2,5.3-2.2c2,0,3.9,0.8,5.3,2.2
	c2.9,2.9,2.9,7.7,0,10.7C125.6,371.3,123.7,372.1,121.6,372.1L121.6,372.1z"/>
<path class="st1" d="M326.4,700.9c-0.8,0-1.6-0.1-2.4-0.4c-4-1.3-6.1-5.6-4.8-9.5c1-3.1,3.9-5.2,7.2-5.2c0.8,0,1.6,0.1,2.4,0.4
	c3.9,1.3,6.1,5.6,4.8,9.5C332.5,698.8,329.6,700.9,326.4,700.9L326.4,700.9z"/>
<path class="st1" d="M451,661.1c-0.8,0-1.6-0.1-2.4-0.4c-4-1.3-6.1-5.6-4.8-9.5c1-3.1,3.9-5.2,7.2-5.2c0.8,0,1.6,0.1,2.4,0.4
	c3.9,1.3,6.1,5.6,4.8,9.5C457.2,659,454.3,661.1,451,661.1L451,661.1z"/>
<path class="st1" d="M451,635.2c-0.8,0-1.6-0.1-2.4-0.4c-4-1.3-6.1-5.6-4.8-9.5c1-3.1,3.9-5.2,7.2-5.2c0.8,0,1.6,0.1,2.4,0.4
	c3.9,1.3,6.1,5.6,4.8,9.5C457.2,633.1,454.3,635.2,451,635.2L451,635.2z"/>
<path class="st1" d="M590.9,634.7c-0.8,0-1.6-0.1-2.4-0.4c-4-1.3-6.1-5.6-4.8-9.5c1-3.1,3.9-5.2,7.2-5.2c0.8,0,1.6,0.1,2.4,0.4
	c3.9,1.3,6.1,5.6,4.8,9.5C597,632.6,594.1,634.7,590.9,634.7L590.9,634.7z"/>
<line class="st11" x1="489.9" y1="121.1" x2="489.9" y2="181.4"/>
<path class="st1" d="M489.7,183.4c-2,0-3.9-0.8-5.3-2.2c-2.9-2.9-2.9-7.7,0-10.7c1.4-1.4,3.3-2.2,5.3-2.2c2,0,3.9,0.8,5.3,2.2
	c2.9,2.9,2.9,7.7,0,10.7C493.6,182.6,491.7,183.4,489.7,183.4C489.7,183.4,489.7,183.4,489.7,183.4z"/>
<line class="st12" x1="317" y1="136.9" x2="317" y2="205.7"/>
<path class="st13" d="M316.9,213.2c-4.2,0-7.5-3.4-7.5-7.5c0-4.2,3.4-7.5,7.5-7.5c4.2,0,7.5,3.4,7.5,7.5
	C324.5,209.8,321.1,213.2,316.9,213.2z"/>
<line class="st14" x1="317.7" y1="228.6" x2="341.2" y2="252.1"/>
<path class="st13" d="M316.9,235.9c-4.2,0-7.5-3.4-7.5-7.5c0-4.2,3.4-7.5,7.5-7.5c4.2,0,7.5,3.4,7.5,7.5
	C324.4,232.5,321,235.9,316.9,235.9z"/>
<path class="st1" d="M422.6,208.6c-2,0-3.9-0.8-5.3-2.2c-2.9-2.9-2.9-7.7,0-10.7c1.4-1.4,3.3-2.2,5.3-2.2c2,0,3.9,0.8,5.3,2.2
	c2.9,2.9,2.9,7.7,0,10.7C426.5,207.9,424.6,208.6,422.6,208.6C422.6,208.6,422.6,208.6,422.6,208.6z"/>
<line class="st12" x1="350.4" y1="294" x2="350.4" y2="261.1"/>
<line class="st12" x1="350.4" y1="329.6" x2="350.4" y2="294"/>
<line class="st12" x1="428.4" y1="407.6" x2="350.4" y2="329.6"/>
<line class="st12" x1="450.7" y1="429.9" x2="428.4" y2="407.6"/>
<line class="st12" x1="518.5" y1="497.7" x2="450.7" y2="429.9"/>
<polyline class="st12" points="564.4,603.2 564.6,543.8 518.5,497.7 "/>
<g>
    <path class="st8" d="M403.1,677.4"/>
</g>
<g>
    <path class="st8" d="M400.8,771.1"/>
</g>
<line class="st11" x1="490.3" y1="276.2" x2="490.3" y2="253.5"/>
<line class="st11" x1="490.3" y1="301.5" x2="490.3" y2="276.2"/>
<line class="st11" x1="490.3" y1="394.3" x2="490.3" y2="301.5"/>
<line class="st11" x1="460.6" y1="423.9" x2="490.3" y2="394.3"/>
<line class="st11" x1="368.6" y1="516" x2="460.6" y2="423.9"/>
<line class="st11" x1="345.5" y1="539" x2="368.6" y2="516"/>
<line class="st11" x1="284.9" y1="599.6" x2="345.5" y2="539"/>
<path class="st1" d="M461.6,226.9c-2,0-3.9-0.8-5.3-2.2c-2.9-2.9-2.9-7.7,0-10.7c1.4-1.4,3.3-2.2,5.3-2.2c2,0,3.9,0.8,5.3,2.2
	c2.9,2.9,2.9,7.7,0,10.7C465.5,226.2,463.6,226.9,461.6,226.9C461.6,226.9,461.6,226.9,461.6,226.9z"/>
<path class="st1" d="M267,253.8c-2,0-3.9-0.8-5.3-2.2c-2.9-2.9-2.9-7.7,0-10.7c1.4-1.4,3.3-2.2,5.3-2.2c2,0,3.9,0.8,5.3,2.2
	c2.9,2.9,2.9,7.7,0,10.7C271,253,269.1,253.8,267,253.8L267,253.8z"/>
<path class="st1" d="M284.6,271.6c-2,0-3.9-0.8-5.3-2.2c-2.9-2.9-2.9-7.7,0-10.7c1.4-1.4,3.3-2.2,5.3-2.2c2,0,3.9,0.8,5.3,2.2
	c2.9,2.9,2.9,7.7,0,10.7C288.5,270.8,286.6,271.6,284.6,271.6L284.6,271.6z"/>
<path class="st1" d="M250.1,237c-2,0-3.9-0.8-5.3-2.2c-2.9-2.9-2.9-7.7,0-10.7c1.4-1.4,3.3-2.2,5.3-2.2c2,0,3.9,0.8,5.3,2.2
	c2.9,2.9,2.9,7.7,0,10.7C254,236.2,252.1,237,250.1,237L250.1,237z"/>
<line class="st11" x1="489.9" y1="205.4" x2="489.9" y2="243.6"/>
<path class="st1" d="M350.1,271.9c-5.4,0-9.9-4.1-10.7-9.3c-5.2-0.8-9.2-5.4-9.2-10.8c0-6,4.9-10.9,10.9-10.8
	c5.4,0,9.9,4.1,10.7,9.3c5.2,0.8,9.2,5.4,9.2,10.8C361,267.1,356.1,271.9,350.1,271.9z"/>
<path class="st17" d="M350.2,253c-0.4,0-0.8,0-1.2,0.1c0.1-0.4,0.1-0.8,0.1-1.2c0-4.4-3.6-8.1-8-8.1c-4.4,0-8.1,3.6-8.1,8
	c0,4.4,3.6,8.1,8,8.1c0.4,0,0.8,0,1.2-0.1c-0.1,0.4-0.1,0.8-0.1,1.2c0,4.4,3.6,8.1,8,8.1c4.4,0,8.1-3.6,8.1-8
	C358.2,256.6,354.7,253,350.2,253z"/>
<circle class="st18" cx="341.1" cy="251.9" r="4.7"/>
<path class="st1" d="M375.5,354.8c-4.3,4.2-11.2,4.2-15.4-0.1c-1.5-1.6-2.6-3.5-3-5.7c-2.1-0.4-4.1-1.5-5.6-3
	c-1.5-1.6-2.6-3.5-3-5.7c-2.1-0.4-4.1-1.5-5.6-3c-4.2-4.3-4.2-11.2,0.1-15.4c4.3-4.2,11.2-4.2,15.4,0.1c1.5,1.6,2.6,3.5,3,5.7
	c2.1,0.4,4.1,1.5,5.6,3c1.5,1.6,2.6,3.5,3,5.7c2.1,0.4,4.1,1.5,5.6,3C379.8,343.7,379.8,350.6,375.5,354.8z"/>
<circle class="st18" cx="368" cy="347.2" r="4.7"/>
<circle class="st18" cx="316.9" cy="97.2" r="4.7"/>
<circle class="st18" cx="316.9" cy="108.3" r="4.7"/>
<circle class="st18" cx="316.9" cy="205.8" r="4.7"/>
<circle class="st18" cx="316.9" cy="216.9" r="4.7"/>
<circle class="st18" cx="316.9" cy="228.1" r="4.7"/>
<path class="st13" d="M350.4,301.9c-4.2,0-7.5-3.4-7.5-7.5c0-4.2,3.4-7.5,7.5-7.5c4.2,0,7.5,3.4,7.5,7.5
	C357.9,298.5,354.5,301.9,350.4,301.9z"/>
<circle class="st18" cx="350.4" cy="294.4" r="4.7"/>
<circle class="st19" cx="350.2" cy="261" r="4.7"/>
<circle class="st20" cx="359.3" cy="338.4" r="4.7"/>
<circle class="st20" cx="448.6" cy="87.9" r="4.7"/>
<circle class="st21" cx="716.2" cy="629.3" r="4.7"/>
<circle class="st21" cx="716.2" cy="640.4" r="4.7"/>
<circle class="st21" cx="716.2" cy="651.6" r="4.7"/>
<circle class="st21" cx="716.2" cy="662.8" r="4.7"/>
<circle class="st21" cx="716.2" cy="673.9" r="4.7"/>
<path class="st1" d="M160.4,652.2c-2,0-3.9-0.8-5.3-2.2c-2.9-2.9-2.9-7.7,0-10.7c1.4-1.4,3.3-2.2,5.3-2.2c2,0,3.9,0.8,5.3,2.2
	c2.9,2.9,2.9,7.7,0,10.7C164.3,651.4,162.4,652.2,160.4,652.2L160.4,652.2z"/>
<circle class="st22" cx="160.4" cy="644.6" r="4.7"/>
<path class="st1" d="M343.8,468.3c-2,0-3.9-0.8-5.3-2.2c-2.9-2.9-2.9-7.7,0-10.7c1.4-1.4,3.3-2.2,5.3-2.2c2,0,3.9,0.8,5.3,2.2
	c2.9,2.9,2.9,7.7,0,10.7C347.7,467.6,345.8,468.3,343.8,468.3L343.8,468.3z"/>
<circle class="st22" cx="343.8" cy="460.8" r="4.7"/>
<circle class="st22" cx="160.4" cy="655.8" r="4.7"/>
<circle class="st22" cx="160.4" cy="667" r="4.7"/>
<circle class="st22" cx="160.4" cy="678.1" r="4.7"/>
<circle class="st22" cx="160.4" cy="689.3" r="4.7"/>
<circle class="st23" cx="489.9" cy="175.6" r="4.7"/>
<path class="st1" d="M509.8,302.8c-2,0-3.9-0.8-5.3-2.2c-2.9-2.9-2.9-7.7,0-10.7c1.4-1.4,3.3-2.2,5.3-2.2c2,0,3.9,0.8,5.3,2.2
	c2.9,2.9,2.9,7.7,0,10.7C513.8,302,511.9,302.8,509.8,302.8C509.8,302.8,509.8,302.8,509.8,302.8z"/>
<circle class="st22" cx="509.8" cy="295.2" r="4.7"/>
<path class="st1" d="M489.9,205.5c-2,0-3.9-0.8-5.3-2.2c-2.9-2.9-2.9-7.7,0-10.7c1.4-1.4,3.3-2.2,5.3-2.2c2,0,3.9,0.8,5.3,2.2
	c2.9,2.9,2.9,7.7,0,10.7C493.8,204.7,491.9,205.5,489.9,205.5C489.9,205.5,489.9,205.5,489.9,205.5z"/>
<circle class="st23" cx="489.9" cy="197.9" r="4.7"/>
<path class="st1" d="M489.9,284.2c-2,0-3.9-0.8-5.3-2.2c-2.9-2.9-2.9-7.7,0-10.7c1.4-1.4,3.3-2.2,5.3-2.2c2,0,3.9,0.8,5.3,2.2
	c2.9,2.9,2.9,7.7,0,10.7C493.8,283.5,491.9,284.2,489.9,284.2C489.9,284.2,489.9,284.2,489.9,284.2z"/>
<circle class="st23" cx="489.9" cy="276.7" r="4.7"/>
<circle class="st24" cx="590.9" cy="649.3" r="4.7"/>
<circle class="st24" cx="590.9" cy="660.3" r="4.7"/>
<circle class="st24" cx="590.9" cy="671.5" r="4.7"/>
<circle class="st20" cx="451.1" cy="554" r="4.7"/>
<circle class="st20" cx="451.1" cy="565.1" r="4.7"/>
<path class="st1" d="M345.1,547c-2,0-3.9-0.8-5.3-2.2c-2.9-2.9-2.9-7.7,0-10.7c1.4-1.4,3.3-2.2,5.3-2.2c2,0,3.9,0.8,5.3,2.2
	c2.9,2.9,2.9,7.7,0,10.7C349,546.2,347.1,547,345.1,547L345.1,547z"/>
<circle class="st23" cx="345.1" cy="539.4" r="4.7"/>
<circle class="st23" cx="284.7" cy="629" r="4.7"/>
<circle class="st23" cx="284.7" cy="640.1" r="4.7"/>
<circle class="st23" cx="284.7" cy="651.3" r="4.7"/>
<circle class="st23" cx="284.7" cy="662.5" r="4.7"/>
<circle class="st23" cx="284.7" cy="673.6" r="4.7"/>
<circle class="st23" cx="284.7" cy="684.8" r="4.7"/>
<circle class="st23" cx="284.7" cy="695.8" r="4.7"/>
<circle class="st25" cx="108.6" cy="233.9" r="4.7"/>
<circle class="st25" cx="108.6" cy="245.1" r="4.7"/>
<circle class="st25" cx="108.6" cy="256.3" r="4.7"/>
<circle class="st25" cx="108.6" cy="267.3" r="4.7"/>
<circle class="st25" cx="108.6" cy="278.5" r="4.7"/>
<circle class="st25" cx="108.6" cy="289.6" r="4.7"/>
<path class="st1" d="M443.4,283.5c-3.9,3.8-9.9,4.2-14.1,1.1c-4.3,3.1-10.3,2.7-14.1-1.1c-4.2-4.2-4.2-11.1,0-15.4
	c3.9-3.8,9.9-4.2,14.1-1.1c4.3-3.1,10.3-2.7,14.1,1.1C447.6,272.3,447.6,279.2,443.4,283.5z"/>
<path class="st17" d="M430,270.1c-0.3,0.3-0.5,0.6-0.8,0.9c-0.2-0.3-0.5-0.6-0.7-0.9c-3.1-3.1-8.2-3.2-11.4,0
	c-3.1,3.1-3.2,8.2,0,11.4c3.1,3.1,8.2,3.2,11.4,0c0.3-0.3,0.5-0.6,0.8-0.9c0.2,0.3,0.5,0.6,0.7,0.9c3.1,3.1,8.2,3.2,11.4,0
	c3.1-3.1,3.2-8.2,0-11.4C438.3,266.9,433.2,266.9,430,270.1z"/>
<circle class="st20" cx="422.8" cy="275.7" r="4.7"/>
<circle class="st24" cx="435.7" cy="275.8" r="4.7"/>
<path class="st1" d="M582.8,406.9c-3.8-3.8-4.2-9.9-1.1-14.1c-3.1-4.3-2.8-10.3,1.1-14.1c4.2-4.2,11.1-4.2,15.4,0
	c3.8,3.8,4.2,9.9,1.1,14.1c3.1,4.3,2.8,10.3-1.1,14.1C593.9,411.1,587,411.2,582.8,406.9z"/>
<path class="st17" d="M596.2,393.5c-0.3-0.3-0.6-0.5-0.9-0.8c0.3-0.2,0.6-0.5,0.9-0.8c3.1-3.1,3.1-8.2,0-11.4
	c-3.1-3.1-8.2-3.1-11.4,0c-3.1,3.1-3.1,8.2,0,11.4c0.3,0.3,0.6,0.5,0.9,0.8c-0.3,0.2-0.6,0.5-0.9,0.8c-3.1,3.1-3.1,8.2,0,11.4
	c3.1,3.1,8.2,3.1,11.4,0C599.3,401.8,599.3,396.7,596.2,393.5z"/>
<circle class="st26" cx="590.5" cy="386.3" r="4.7"/>
<circle class="st27" cx="590.5" cy="399.2" r="4.7"/>
<path class="st1" d="M563.5,710.3c3.8-3.8,9.9-4.2,14.1-1.1c4.3-3.1,10.3-2.8,14.1,1.1c4.2,4.2,4.2,11.1,0,15.4
	c-3.8,3.8-9.9,4.2-14.1,1.1c-4.3,3.1-10.3,2.8-14.1-1.1C559.2,721.4,559.2,714.5,563.5,710.3z"/>
<path class="st17" d="M576.8,723.6c0.3-0.3,0.5-0.6,0.8-0.9c0.2,0.3,0.5,0.6,0.8,0.9c3.1,3.1,8.2,3.1,11.4,0c3.1-3.1,3.1-8.2,0-11.4
	c-3.1-3.1-8.2-3.1-11.4,0c-0.3,0.3-0.5,0.6-0.7,0.9c-0.2-0.3-0.5-0.6-0.8-0.9c-3.1-3.1-8.2-3.1-11.4,0c-3.1,3.1-3.1,8.2,0,11.4
	C568.6,726.8,573.7,726.8,576.8,723.6z"/>
<circle class="st27" cx="584" cy="717.9" r="4.7"/>
<circle class="st28" cx="571.2" cy="717.9" r="4.7"/>
<path class="st1" d="M482.1,261c-3.8-3.9-4.1-9.9-1-14.1c-3.1-4.3-2.7-10.3,1.2-14.1c4.3-4.2,11.2-4.2,15.4,0.1
	c3.8,3.9,4.1,9.9,1,14.1c3.1,4.3,2.7,10.3-1.2,14.1C493.2,265.3,486.3,265.2,482.1,261z"/>
<path class="st17" d="M495.5,247.7c-0.3-0.3-0.6-0.5-0.9-0.8c0.3-0.2,0.6-0.5,0.9-0.7c3.2-3.1,3.2-8.2,0.1-11.4
	c-3.1-3.2-8.2-3.2-11.4-0.1c-3.2,3.1-3.2,8.2-0.1,11.4c0.3,0.3,0.6,0.5,0.9,0.8c-0.3,0.2-0.6,0.5-0.9,0.7c-3.2,3.1-3.2,8.2-0.1,11.4
	c3.1,3.2,8.2,3.2,11.4,0.1C498.6,255.9,498.6,250.8,495.5,247.7z"/>
<circle class="st23" cx="489.9" cy="240.5" r="4.7"/>
<circle class="st19" cx="489.8" cy="253.3" r="4.7"/>
<path class="st1" d="M514.4,279.5c0-5.4,4-9.9,9.2-10.7c0.8-5.2,5.3-9.2,10.8-9.2c6,0,10.9,4.9,10.9,10.9c0,5.4-4,9.9-9.2,10.7
	c-0.8,5.2-5.3,9.2-10.8,9.2C519.3,290.4,514.4,285.5,514.4,279.5z"/>
<path class="st17" d="M533.3,279.6c0-0.4,0-0.8-0.1-1.2c0.4,0.1,0.8,0.1,1.2,0.1c4.4,0,8-3.6,8.1-8c0-4.4-3.6-8-8-8.1
	c-4.4,0-8,3.6-8.1,8c0,0.4,0,0.8,0.1,1.2c-0.4-0.1-0.8-0.1-1.2-0.1c-4.4,0-8,3.6-8.1,8c0,4.4,3.6,8,8,8.1S533.3,284,533.3,279.6z"/>
<circle class="st29" cx="534.4" cy="270.5" r="4.7"/>
<circle class="st19" cx="525.3" cy="279.5" r="4.7"/>
<path class="st1" d="M509.5,477.9c5.4,0,10,4,10.8,9.2c5.2,0.8,9.2,5.3,9.2,10.7c0,6-4.9,10.9-10.9,10.9c-5.4,0-10-4-10.8-9.2
	c-5.2-0.8-9.2-5.3-9.2-10.7C498.6,482.8,503.5,477.9,509.5,477.9z"/>
<path class="st17" d="M509.5,496.8c0.4,0,0.8,0,1.2-0.1c-0.1,0.4-0.1,0.8-0.1,1.2c0,4.4,3.6,8,8,8c4.4,0,8-3.6,8-8c0-4.4-3.6-8-8-8
	c-0.4,0-0.8,0-1.2,0.1c0.1-0.4,0.1-0.8,0.1-1.2c0-4.4-3.6-8-8-8c-4.4,0-8,3.6-8,8C501.4,493.2,505,496.8,509.5,496.8z"/>
<circle class="st30" cx="518.6" cy="497.9" r="4.7"/>
<circle class="st19" cx="509.5" cy="488.8" r="4.7"/>
<path class="st1" d="M458.7,507c3.9,3.8,4.2,9.9,1.1,14.1c3.1,4.2,2.8,10.3-1.1,14.1c-4.2,4.2-11.1,4.3-15.4,0
	c-3.9-3.8-4.2-9.9-1.1-14.1c-3.1-4.2-2.8-10.3,1.1-14.1C447.6,502.8,454.5,502.8,458.7,507z"/>
<path class="st17" d="M445.4,520.4c0.3,0.3,0.6,0.5,0.9,0.7c-0.3,0.2-0.6,0.5-0.9,0.8c-3.1,3.1-3.1,8.2,0,11.4
	c3.1,3.1,8.2,3.1,11.4,0c3.1-3.1,3.1-8.2,0-11.4c-0.3-0.3-0.6-0.5-0.9-0.7c0.3-0.2,0.6-0.5,0.9-0.8c3.1-3.1,3.1-8.2,0-11.4
	c-3.1-3.1-8.2-3.1-11.4,0C442.2,512.2,442.2,517.3,445.4,520.4z"/>
<circle class="st20" cx="451.1" cy="527.6" r="4.7"/>
<circle class="st19" cx="451.1" cy="514.7" r="4.7"/>
<path class="st1" d="M387.6,507.3c0,5.4-4.1,9.9-9.3,10.7c-0.8,5.2-5.4,9.2-10.8,9.2c-6,0-10.9-4.9-10.8-10.9
	c0-5.4,4.1-9.9,9.3-10.7c0.8-5.2,5.4-9.2,10.8-9.2C382.7,496.4,387.6,501.3,387.6,507.3z"/>
<path class="st17" d="M368.6,507.2c0,0.4,0,0.8,0.1,1.2c-0.4-0.1-0.8-0.1-1.2-0.1c-4.4,0-8.1,3.6-8.1,8c0,4.4,3.6,8.1,8,8.1
	c4.4,0,8.1-3.6,8.1-8c0-0.4,0-0.8-0.1-1.2c0.4,0.1,0.8,0.1,1.2,0.1c4.4,0,8.1-3.6,8.1-8c0-4.4-3.6-8.1-8-8.1
	C372.3,499.2,368.7,502.8,368.6,507.2z"/>
<circle class="st23" cx="367.5" cy="516.3" r="4.7"/>
<circle class="st19" cx="376.7" cy="507.3" r="4.7"/>
<path class="st1" d="M338.4,476c0.1,5.4-3.9,10-9.1,10.9c-0.7,5.2-5.2,9.3-10.6,9.4c-6,0.1-10.9-4.7-11-10.7
	c-0.1-5.4,3.9-10,9.1-10.9c0.7-5.2,5.2-9.3,10.6-9.4C333.4,465.2,338.3,470,338.4,476z"/>
<path class="st17" d="M319.5,476.2c0,0.4,0,0.8,0.1,1.2c-0.4,0-0.8-0.1-1.2-0.1c-4.4,0.1-8,3.7-7.9,8.1c0.1,4.4,3.7,8,8.1,7.9
	c4.4-0.1,8-3.7,7.9-8.1c0-0.4,0-0.8-0.1-1.2c0.4,0,0.8,0.1,1.2,0.1c4.4-0.1,8-3.7,7.9-8.1c-0.1-4.4-3.7-8-8.1-7.9
	C323,468.1,319.4,471.8,319.5,476.2z"/>
<circle class="st29" cx="318.5" cy="485.4" r="4.7"/>
<circle class="st19" cx="327.5" cy="476.1" r="4.7"/>
<path class="st1" d="M314.7,304.4c-5.4,0-10-4-10.8-9.2c-5.2-0.8-9.2-5.3-9.2-10.7c0-6,4.9-10.9,10.9-10.9c5.4,0,10,4,10.8,9.2
	c5.2,0.8,9.2,5.3,9.2,10.7C325.5,299.5,320.7,304.4,314.7,304.4z"/>
<path class="st17" d="M314.7,285.5c-0.4,0-0.8,0-1.2,0.1c0.1-0.4,0.1-0.8,0.1-1.2c0-4.4-3.6-8-8-8c-4.4,0-8,3.6-8,8.1
	c0,4.4,3.6,8,8.1,8c0.4,0,0.8,0,1.2-0.1c-0.1,0.4-0.1,0.8-0.1,1.2c0,4.4,3.6,8,8.1,8c4.4,0,8-3.6,8-8
	C322.7,289.1,319.1,285.5,314.7,285.5z"/>
<circle class="st31" cx="305.6" cy="284.5" r="4.7"/>
<circle class="st31" cx="350.5" cy="329.6" r="4.7"/>
<circle class="st19" cx="314.7" cy="293.6" r="4.7"/>
<path class="st1" d="M108.5,368.6c-2,0-3.9-0.8-5.3-2.2c-2.9-2.9-2.9-7.7,0-10.7c1.4-1.4,3.3-2.2,5.3-2.2c2,0,3.9,0.8,5.3,2.2
	c2.9,2.9,2.9,7.7,0,10.7C112.4,367.8,110.5,368.6,108.5,368.6L108.5,368.6z"/>
<path class="st1" d="M130.7,440.3c-2,0-3.9-0.8-5.3-2.2c-2.9-2.9-2.9-7.7,0-10.7c1.4-1.4,3.3-2.2,5.3-2.2c2,0,3.9,0.8,5.3,2.2
	c2.9,2.9,2.9,7.7,0,10.7C134.6,439.5,132.7,440.3,130.7,440.3L130.7,440.3z"/>
<circle class="st25" cx="130.7" cy="432.8" r="4.7"/>
<path class="st1" d="M328.7,440.3c-2,0-3.9-0.8-5.3-2.2c-2.9-2.9-2.9-7.7,0-10.7c1.4-1.4,3.3-2.2,5.3-2.2c2,0,3.9,0.8,5.3,2.2
	c2.9,2.9,2.9,7.7,0,10.7C332.6,439.5,330.7,440.3,328.7,440.3L328.7,440.3z"/>
<circle class="st25" cx="328.7" cy="432.8" r="4.7"/>
<circle class="st25" cx="108.5" cy="361" r="4.7"/>
<path class="st1" d="M231,415.4c-2,0-3.9-0.8-5.3-2.2c-2.9-2.9-2.9-7.7,0-10.7c1.4-1.4,3.3-2.2,5.3-2.2c2,0,3.9,0.8,5.3,2.2
	c2.9,2.9,2.9,7.7,0,10.7C234.9,414.6,233,415.4,231,415.4L231,415.4z"/>
<circle class="st32" cx="231" cy="407.9" r="4.7"/>
<g>
    <path class="st1" d="M359.4,455.5c-6,0-10.9-4.9-10.9-10.9c0-2.2,0.7-4.3,1.9-6.1c-1.2-1.8-1.9-3.9-1.9-6.1s0.7-4.3,1.9-6.1
	c-1.2-1.8-1.9-3.9-1.9-6.1c0-2.2,0.7-4.4,1.9-6.2c-1.2-1.8-1.9-3.9-1.9-6.2c0-6,4.9-10.9,10.9-10.9c6,0,10.9,4.9,10.9,10.9
	c0,2.2-0.7,4.4-1.9,6.2c1.2,1.8,1.9,3.9,1.9,6.2c0,2.2-0.7,4.3-1.9,6.1c1.2,1.8,1.9,3.9,1.9,6.1s-0.7,4.3-1.9,6.1
	c1.2,1.8,1.9,3.9,1.9,6.1C370.3,450.6,365.4,455.5,359.4,455.5z"/>
    <path class="st17" d="M367.5,420.2c0-2.5-1.1-4.7-2.9-6.2c1.8-1.5,2.9-3.7,2.9-6.2c0-4.5-3.6-8.1-8.1-8.1c-4.5,0-8.1,3.6-8.1,8.1
	c0,2.5,1.1,4.7,2.9,6.2c-1.8,1.5-2.9,3.7-2.9,6.2c0,2.4,1.1,4.6,2.8,6.1c-1.7,1.5-2.8,3.7-2.8,6.1c0,2.4,1.1,4.6,2.8,6.1
	c-1.7,1.5-2.8,3.7-2.8,6.1c0,4.5,3.6,8.1,8.1,8.1c4.5,0,8.1-3.6,8.1-8.1c0-2.4-1.1-4.6-2.8-6.1c1.7-1.5,2.8-3.7,2.8-6.1
	c0-2.4-1.1-4.6-2.8-6.1C366.4,424.8,367.5,422.7,367.5,420.2z"/>
</g>
<path class="st17" d="M365,332.7c-1.7-1.7-4-2.5-6.3-2.4c0.2-2.3-0.6-4.6-2.3-6.3c-3.1-3.2-8.2-3.2-11.4-0.1
	c-3.2,3.1-3.2,8.2-0.1,11.4c1.7,1.7,4,2.5,6.3,2.4c-0.2,2.3,0.6,4.6,2.3,6.3c1.7,1.7,4,2.5,6.3,2.4c-0.2,2.3,0.6,4.6,2.3,6.3
	c3.1,3.2,8.2,3.2,11.4,0.1c3.2-3.1,3.2-8.2,0.1-11.4c-1.7-1.7-4-2.5-6.3-2.4C367.5,336.8,366.7,334.5,365,332.7z"/>
<path class="st1" d="M490.2,337.1c-6,0-10.9-4.9-10.9-10.9c0-2.2,0.7-4.3,1.9-6.1c-1.2-1.8-1.9-3.9-1.9-6.1s0.7-4.3,1.9-6.1
	c-1.2-1.8-1.9-3.9-1.9-6.1c0-6,4.9-10.9,10.9-10.9c6,0,10.9,4.9,10.9,10.9c0,2.2-0.7,4.3-1.9,6.1c1.2,1.8,1.9,3.9,1.9,6.1
	s-0.7,4.3-1.9,6.1c1.2,1.8,1.9,3.9,1.9,6.1C501.1,332.2,496.2,337.1,490.2,337.1z"/>
<circle class="st27" cx="490.2" cy="326.4" r="4.7"/>
<circle class="st22" cx="490.2" cy="314" r="4.7"/>
<circle class="st23" cx="490.2" cy="301.6" r="4.7"/>
<circle class="st33" cx="359.4" cy="432.7" r="4.7"/>
<circle class="st22" cx="359.4" cy="445" r="4.7"/>
<circle class="st20" cx="359.4" cy="420.4" r="4.7"/>
<circle class="st34" cx="359.4" cy="407.9" r="4.7"/>
<path class="st17" d="M498.2,314c0-2.4-1.1-4.6-2.8-6.1c1.7-1.5,2.8-3.7,2.8-6.1c0-4.5-3.6-8.1-8.1-8.1c-4.5,0-8.1,3.6-8.1,8.1
	c0,2.4,1.1,4.6,2.8,6.1c-1.7,1.5-2.8,3.7-2.8,6.1c0,2.4,1.1,4.6,2.8,6.1c-1.7,1.5-2.8,3.7-2.8,6.1c0,4.5,3.6,8.1,8.1,8.1
	c4.5,0,8.1-3.6,8.1-8.1c0-2.4-1.1-4.6-2.8-6.1C497.2,318.6,498.2,316.5,498.2,314z"/>
<path class="st1" d="M443.4,439.6c-4.2-4.3-4.2-11.2,0-15.4c1.6-1.5,3.5-2.6,5.6-3c0.4-2.1,1.4-4.1,3-5.6c1.6-1.5,3.5-2.6,5.6-3
	c0.4-2.1,1.4-4.1,3-5.6c4.3-4.2,11.2-4.2,15.4,0c4.2,4.3,4.2,11.2,0,15.4c-1.6,1.5-3.5,2.6-5.6,3c-0.4,2.1-1.4,4.1-3,5.6
	c-1.6,1.5-3.5,2.6-5.6,3c-0.4,2.1-1.4,4.1-3,5.6C454.5,443.8,447.6,443.8,443.4,439.6z"/>
<circle class="st18" cx="451" cy="432" r="4.7"/>
<circle class="st23" cx="459.7" cy="423.3" r="4.7"/>
<circle class="st35" cx="468.5" cy="414.5" r="4.7"/>
<path class="st17" d="M465.4,429c1.7-1.7,2.5-4,2.3-6.3c2.3,0.2,4.6-0.6,6.3-2.3c3.2-3.1,3.2-8.3,0-11.4c-3.1-3.2-8.3-3.2-11.4,0
	c-1.7,1.7-2.5,4-2.3,6.3c-2.3-0.2-4.6,0.6-6.3,2.3c-1.7,1.7-2.5,4-2.3,6.3c-2.3-0.2-4.6,0.6-6.3,2.3c-3.2,3.1-3.2,8.3,0,11.4
	c3.1,3.2,8.3,3.2,11.4,0c1.7-1.7,2.5-4,2.3-6.3C461.4,431.5,463.7,430.7,465.4,429z"/>
<path class="st1" d="M437.8,416.9c-4.2,4.3-11.2,4.3-15.4,0c-1.6-1.6-2.6-3.5-3-5.6c-2.1-0.4-4.1-1.4-5.6-3c-1.6-1.6-2.6-3.5-3-5.6
	c-2.1-0.4-4.1-1.4-5.6-3c-4.3-4.2-4.3-11.2,0-15.4c4.2-4.3,11.2-4.3,15.4,0c1.6,1.6,2.6,3.5,3,5.6c2.1,0.4,4.1,1.4,5.6,3
	c1.6,1.6,2.6,3.5,3,5.6c2.1,0.4,4.1,1.4,5.6,3C442,405.8,442,412.7,437.8,416.9z"/>
<circle class="st18" cx="430.1" cy="409.3" r="4.7"/>
<circle class="st20" cx="421.4" cy="400.6" r="4.7"/>
<circle class="st22" cx="412.6" cy="391.8" r="4.7"/>
<path class="st17" d="M427.1,394.9c-1.7-1.7-4-2.5-6.3-2.3c0.2-2.3-0.6-4.6-2.3-6.3c-3.2-3.1-8.3-3.1-11.4,0
	c-3.1,3.2-3.1,8.3,0,11.4c1.7,1.7,4,2.5,6.3,2.3c-0.2,2.3,0.6,4.6,2.3,6.3c1.7,1.7,4,2.5,6.3,2.3c-0.2,2.3,0.6,4.6,2.3,6.3
	c3.2,3.1,8.3,3.1,11.4,0c3.1-3.2,3.1-8.3,0-11.4c-1.7-1.7-4-2.5-6.3-2.3C429.6,398.9,428.8,396.6,427.1,394.9z"/>
<path class="st1" d="M302.7,442.1c-5.5,2.5-11.9,0.2-14.5-5.3c-1-2.2-1.3-4.7-0.7-7.1c-1.7-1.1-3.1-2.7-4-4.5
	c-1.3-2.9-1.3-6.2-0.1-9c-1.1-1-2-2.2-2.6-3.5c-2.5-5.4-0.2-11.9,5.3-14.5c5.5-2.5,11.9-0.2,14.5,5.3c1.3,2.9,1.3,6.2,0.1,9
	c1.1,1,2,2.2,2.6,3.5c1,2.2,1.3,4.7,0.7,7.1c1.7,1.1,3.1,2.7,4,4.5C310.5,433,308.1,439.5,302.7,442.1z"/>
<path class="st17" d="M298,404.7c-1.9-4-6.7-5.8-10.7-3.9c-4,1.9-5.8,6.7-3.9,10.7c0.8,1.8,2.2,3.1,3.9,3.9c-2,2.3-2.6,5.7-1.2,8.6
	c1,2.2,2.8,3.6,4.9,4.3c-1.2,2.2-1.4,4.9-0.3,7.3c1.9,4,6.7,5.8,10.7,3.9c4-1.9,5.8-6.7,3.9-10.7c-1-2.2-2.8-3.6-4.9-4.3
	c1.2-2.2,1.4-4.9,0.3-7.3c-0.8-1.8-2.2-3.1-3.9-3.9C298.8,411,299.4,407.6,298,404.7z"/>
<circle class="st19" cx="293.3" cy="420.6" r="4.7"/>
<circle class="st33" cx="298.1" cy="432.4" r="4.7"/>
<circle class="st34" cx="290.9" cy="408" r="4.7"/>
<path class="st1" d="M555.4,324.7c5.7-2,11.9,1,13.9,6.7c0.8,2.3,0.8,4.8,0,7.1c1.6,1.3,2.8,3,3.5,4.9c1.1,3,0.7,6.3-0.8,9
	c1,1.1,1.7,2.3,2.2,3.7c2,5.7-1,11.9-6.7,13.9c-5.7,2-11.9-1-13.9-6.7c-1.1-3-0.7-6.3,0.8-9c-1-1.1-1.7-2.3-2.2-3.7
	c-0.8-2.3-0.8-4.8,0-7.1c-1.6-1.3-2.8-3-3.5-4.9C546.7,332.9,549.7,326.7,555.4,324.7z"/>
<path class="st17" d="M556.4,362.4c1.5,4.2,6.1,6.4,10.3,4.9c4.2-1.5,6.4-6.1,4.9-10.3c-0.7-1.8-1.9-3.3-3.5-4.2
	c2.2-2.1,3.1-5.4,2-8.5c-0.8-2.2-2.5-3.9-4.5-4.8c1.4-2,1.9-4.7,1-7.2c-1.5-4.2-6.1-6.4-10.3-4.9c-4.2,1.5-6.4,6.1-4.9,10.3
	c0.8,2.2,2.5,3.9,4.5,4.8c-1.4,2-1.9,4.7-1,7.2c0.6,1.8,1.9,3.3,3.5,4.2C556.2,356,555.3,359.3,556.4,362.4z"/>
<circle class="st19" cx="562.6" cy="346.9" r="4.7"/>
<path class="st33" d="M556.9,339.1c2.3,1.1,5.2,0.1,6.3-2.2c1.1-2.3,0.1-5.2-2.2-6.3c-2.3-1.1-5.2-0.1-6.3,2.2
	C553.6,335.1,554.6,337.9,556.9,339.1z"/>
<circle class="st27" cx="563.8" cy="359.8" r="4.7"/>
<path class="st1" d="M485.9,598.7c-0.8,0-1.6-0.1-2.4-0.4c-4-1.3-6.1-5.6-4.8-9.5c1-3.1,3.9-5.2,7.2-5.2c0.8,0,1.6,0.1,2.4,0.4
	c3.9,1.3,6.1,5.6,4.8,9.5C492,596.6,489.1,598.7,485.9,598.7L485.9,598.7z"/>
<circle class="st36" cx="485.9" cy="591.2" r="4.7"/>
<path class="st1" d="M443.6,583.4c3.9-3.8,9.9-4.2,14.1-1c4.3-3.1,10.3-2.7,14.1,1.1c4.2,4.2,4.2,11.1,0,15.4
	c-3.9,3.8-9.9,4.2-14.1,1.1c-4.3,3.1-10.3,2.7-14.1-1.1C439.4,594.5,439.4,587.6,443.6,583.4z"/>
<path class="st17" d="M457,596.8c0.3-0.3,0.5-0.6,0.8-0.9c0.2,0.3,0.5,0.6,0.7,0.9c3.1,3.1,8.2,3.2,11.4,0c3.1-3.1,3.2-8.2,0-11.4
	c-3.1-3.1-8.2-3.2-11.4,0c-0.3,0.3-0.5,0.6-0.8,0.9c-0.2-0.3-0.5-0.6-0.7-0.9c-3.1-3.1-8.2-3.2-11.4,0c-3.1,3.1-3.2,8.2,0,11.4
	C448.7,599.9,453.8,599.9,457,596.8z"/>
<circle class="st37" cx="464.2" cy="591.1" r="4.7"/>
<circle class="st38" cx="451.3" cy="591.1" r="4.7"/>
<path class="st1" d="M716.2,614.5c-2,0-3.9-0.8-5.3-2.2c-2.9-2.9-2.9-7.7,0-10.7c1.4-1.4,3.3-2.2,5.3-2.2c2,0,3.9,0.8,5.3,2.2
	c2.9,2.9,2.9,7.7,0,10.7C720.1,613.7,718.2,614.5,716.2,614.5L716.2,614.5z"/>
<circle class="st21" cx="716.2" cy="606.9" r="4.7"/>
<circle class="st21" cx="716.2" cy="618.1" r="4.7"/>
<path class="st1" d="M561.9,406.9c5.9,1.3,9.6,7.1,8.3,13c-0.5,2.4-1.9,4.5-3.7,6c0.7,1.9,0.8,4,0.4,6c-0.7,3.1-2.7,5.7-5.4,7.2
	c0.3,1.4,0.2,2.9-0.1,4.4c-1.3,5.9-7.1,9.6-13,8.3c-5.9-1.3-9.6-7.1-8.3-13c0.7-3.1,2.7-5.7,5.4-7.2c-0.3-1.4-0.2-2.9,0.1-4.4
	c0.5-2.4,1.9-4.5,3.7-6c-0.7-1.9-0.8-4-0.4-6C550.2,409.3,556,405.6,561.9,406.9z"/>
<path class="st17" d="M542.8,439.4c-1,4.4,1.8,8.7,6.1,9.6c4.4,1,8.7-1.8,9.6-6.1c0.4-1.9,0.1-3.8-0.7-5.4c3-0.6,5.5-3,6.2-6.1
	c0.5-2.3,0-4.6-1.3-6.4c2.3-1,4.1-3,4.6-5.6c1-4.4-1.8-8.7-6.1-9.6c-4.4-1-8.7,1.8-9.6,6.1c-0.5,2.3,0,4.6,1.3,6.4
	c-2.3,1-4.1,3-4.6,5.6c-0.4,1.9-0.1,3.8,0.7,5.4C546,433.9,543.5,436.2,542.8,439.4z"/>
<circle class="st19" cx="556.3" cy="429.6" r="4.7"/>
<circle class="st35" cx="559.6" cy="417.4" r="4.7"/>
<circle class="st39" cx="550.5" cy="441.1" r="4.7"/>
<path class="st1" d="M482.1,402.4c-3.8-3.8-4.2-9.9-1.1-14.1c-3.1-4.3-2.8-10.3,1.1-14.1c4.2-4.2,11.1-4.2,15.4,0
	c3.8,3.8,4.2,9.9,1.1,14.1c3.1,4.3,2.8,10.3-1.1,14.1C493.3,406.6,486.4,406.6,482.1,402.4z"/>
<path class="st17" d="M495.5,389c-0.3-0.3-0.6-0.5-0.9-0.8c0.3-0.2,0.6-0.5,0.9-0.8c3.1-3.1,3.1-8.2,0-11.4c-3.1-3.1-8.2-3.1-11.4,0
	c-3.1,3.1-3.1,8.2,0,11.4c0.3,0.3,0.6,0.5,0.9,0.7c-0.3,0.2-0.6,0.5-0.9,0.8c-3.1,3.1-3.1,8.2,0,11.4c3.1,3.1,8.2,3.1,11.4,0
	C498.7,397.2,498.7,392.1,495.5,389z"/>
<circle class="st39" cx="489.8" cy="381.8" r="4.7"/>
<circle class="st23" cx="489.8" cy="394.7" r="4.7"/>
<path class="st1" d="M464.3,358.1c-3.9,3.8-9.9,4.2-14.1,1c-4.3,3.1-10.3,2.7-14.1-1.1c-4.2-4.3-4.2-11.2,0-15.4
	c3.9-3.8,9.9-4.2,14.1-1c4.3-3.1,10.3-2.7,14.1,1.1C468.6,347,468.6,353.9,464.3,358.1z"/>
<path class="st17" d="M451,344.7c-0.3,0.3-0.5,0.6-0.8,0.9c-0.2-0.3-0.5-0.6-0.7-0.9c-3.1-3.1-8.2-3.2-11.4,0
	c-3.1,3.1-3.2,8.2,0,11.4c3.1,3.1,8.2,3.2,11.4,0c0.3-0.3,0.5-0.6,0.8-0.9c0.2,0.3,0.5,0.6,0.7,0.9c3.1,3.1,8.2,3.2,11.4,0
	c3.1-3.1,3.2-8.2,0-11.4C459.2,341.6,454.1,341.6,451,344.7z"/>
<circle class="st31" cx="443.8" cy="350.4" r="4.7"/>
<circle class="st22" cx="456.6" cy="350.4" r="4.7"/>
<circle class="st20" cx="448.6" cy="76.6" r="4.7"/>
<path class="st1" d="M422.8,490.9c-2,0-3.9-0.8-5.3-2.2c-2.9-2.9-2.9-7.7,0-10.7c1.4-1.4,3.3-2.2,5.3-2.2c2,0,3.9,0.8,5.3,2.2
	c2.9,2.9,2.9,7.7,0,10.7C426.7,490.1,424.8,490.9,422.8,490.9C422.8,490.9,422.8,490.9,422.8,490.9z"/>
<circle class="st20" cx="422.8" cy="483.4" r="4.7"/>
<path class="st1" d="M401.8,232.4c3.6-4.1,9.5-4.9,14-2.1c4-3.4,10.1-3.5,14.2,0.1c4.5,3.9,5,10.8,1.1,15.3c-3.6,4.1-9.5,4.9-14,2.1
	c-4,3.4-10.1,3.5-14.2-0.1C398.4,243.9,397.9,237,401.8,232.4z"/>
<path class="st17" d="M416.1,244.8c0.3-0.3,0.5-0.6,0.7-0.9c0.2,0.3,0.5,0.6,0.8,0.8c3.4,2.9,8.4,2.5,11.3-0.8
	c2.9-3.4,2.5-8.4-0.8-11.3c-3.4-2.9-8.4-2.5-11.3,0.8c-0.3,0.3-0.5,0.6-0.7,0.9c-0.3-0.3-0.5-0.6-0.8-0.8c-3.4-2.9-8.4-2.5-11.3,0.8
	c-2.9,3.4-2.5,8.4,0.8,11.3C408.1,248.5,413.2,248.2,416.1,244.8z"/>
<circle class="st20" cx="422.9" cy="238.6" r="4.7"/>
<circle class="st19" cx="410" cy="239.5" r="4.7"/>
<circle class="st23" cx="489.9" cy="186.8" r="4.7"/>
<circle class="st20" cx="451.1" cy="542.8" r="4.7"/>
<path class="st1" d="M305.3,729.4c-3.8,3.8-9.9,4.2-14.1,1.1c-4.3,3.1-10.3,2.8-14.1-1.1c-4.2-4.2-4.2-11.1,0-15.4
	c3.8-3.8,9.9-4.2,14.1-1.1c4.3-3.1,10.3-2.8,14.1,1.1C309.6,718.3,309.6,725.2,305.3,729.4z"/>
<circle class="st23" cx="284.7" cy="721.8" r="4.7"/>
<circle class="st40" cx="297.6" cy="721.8" r="4.7"/>
<path class="st40" d="M329.8,696.7c1.8-1.8,1.8-4.8,0-6.7c-1.8-1.8-4.8-1.8-6.7,0c-1.8,1.8-1.8,4.8,0,6.7
	C324.9,698.6,327.9,698.6,329.8,696.7z"/>
<path class="st17" d="M291.9,716.1c-0.3,0.3-0.5,0.6-0.8,0.9c-0.2-0.3-0.5-0.6-0.8-0.9c-3.1-3.1-8.2-3.1-11.4,0
	c-3.1,3.1-3.1,8.2,0,11.4c3.1,3.1,8.2,3.1,11.4,0c0.3-0.3,0.5-0.6,0.8-0.9c0.2,0.3,0.5,0.6,0.8,0.9c3.1,3.1,8.2,3.1,11.4,0
	c3.1-3.1,3.1-8.2,0-11.4C300.2,712.9,295.1,712.9,291.9,716.1z"/>
<path class="st1" d="M309.3,144.5c-3.8-3.8-4.2-9.9-1.1-14.1c-3.1-4.3-2.8-10.3,1.1-14.1c4.2-4.2,11.1-4.2,15.4,0
	c3.8,3.8,4.2,9.9,1.1,14.1c3.1,4.3,2.8,10.3-1.1,14.1C320.4,148.7,313.5,148.7,309.3,144.5z"/>
<path class="st17" d="M322.7,131.1c-0.3-0.3-0.6-0.5-0.9-0.8c0.3-0.2,0.6-0.5,0.9-0.8c3.1-3.1,3.1-8.2,0-11.4
	c-3.1-3.1-8.2-3.1-11.4,0c-3.1,3.1-3.1,8.2,0,11.4c0.3,0.3,0.6,0.5,0.9,0.7c-0.3,0.2-0.6,0.5-0.9,0.8c-3.1,3.1-3.1,8.2,0,11.4
	c3.1,3.1,8.2,3.1,11.4,0C325.8,139.4,325.8,134.3,322.7,131.1z"/>
<circle class="st41" cx="317" cy="136.8" r="4.7"/>
<circle class="st18" cx="317.1" cy="124" r="4.7"/>
<g>
    <path class="st1" d="M440.9,135c-3.9-3.8-4.2-9.9-1.1-14.1c-3.1-4.2-2.8-10.3,1.1-14.1c4.2-4.2,11.1-4.3,15.4,0
	c3.9,3.8,4.2,9.9,1.1,14.1c3.1,4.2,2.8,10.3-1.1,14.1C452,139.2,445.1,139.2,440.9,135z"/>
    <path class="st17" d="M454.3,121.6c-0.3-0.3-0.6-0.5-0.9-0.8c0.3-0.2,0.6-0.5,0.9-0.8c3.1-3.1,3.1-8.2,0-11.4
	c-3.1-3.1-8.2-3.1-11.4,0c-3.1,3.1-3.1,8.2,0,11.4c0.3,0.3,0.6,0.5,0.9,0.8c-0.3,0.2-0.6,0.5-0.9,0.8c-3.1,3.1-3.1,8.2,0,11.4
	c3.1,3.1,8.2,3.1,11.4,0C457.4,129.8,457.4,124.7,454.3,121.6z"/>
</g>
<circle class="st41" cx="448.6" cy="114.4" r="4.7"/>
<path class="st20" d="M445.3,130.6c1.8,1.8,4.8,1.8,6.7,0c1.8-1.8,1.8-4.8,0-6.7c-1.8-1.8-4.8-1.8-6.7,0
	C443.4,125.8,443.4,128.8,445.3,130.6z"/>
<circle class="st20" cx="448.6" cy="99.1" r="4.7"/>
<path class="st1" d="M469,179.4c-3.8,3.8-9.9,4.2-14.1,1.1c-4.3,3.1-10.3,2.8-14.1-1.1c-4.2-4.2-4.2-11.1,0-15.4
	c3.8-3.8,9.9-4.2,14.1-1.1c4.3-3.1,10.3-2.8,14.1,1.1C473.3,168.3,473.3,175.2,469,179.4z"/>
<path class="st17" d="M455.6,166.1c-0.3,0.3-0.5,0.6-0.8,0.9c-0.2-0.3-0.5-0.6-0.8-0.9c-3.1-3.1-8.2-3.1-11.4,0
	c-3.1,3.1-3.1,8.2,0,11.4c3.1,3.1,8.2,3.1,11.4,0c0.3-0.3,0.5-0.6,0.8-0.9c0.2,0.3,0.5,0.6,0.8,0.9c3.1,3.1,8.2,3.1,11.4,0
	c3.1-3.1,3.1-8.2,0-11.4C463.9,162.9,458.8,162.9,455.6,166.1z"/>
<circle class="st20" cx="448.5" cy="171.7" r="4.7"/>
<circle class="st20" cx="422.9" cy="223.6" r="4.7"/>
<circle class="st20" cx="422.9" cy="212.4" r="4.7"/>
<circle class="st24" cx="461.5" cy="219.3" r="4.7"/>
<circle class="st24" cx="461.6" cy="171.8" r="4.7"/>
<g>
    <path class="st1" d="M482.1,128.6c-3.8-3.8-4.2-9.9-1.1-14.1c-3.1-4.3-2.8-10.3,1.1-14.1c4.2-4.2,11.1-4.2,15.4,0
	c3.8,3.8,4.2,9.9,1.1,14.1c3.1,4.3,2.8,10.3-1.1,14.1C493.3,132.8,486.4,132.8,482.1,128.6z"/>
    <path class="st17" d="M495.5,115.2c-0.3-0.3-0.6-0.5-0.9-0.8c0.3-0.2,0.6-0.5,0.9-0.8c3.1-3.1,3.1-8.2,0-11.4
	c-3.1-3.1-8.2-3.1-11.4,0c-3.1,3.1-3.1,8.2,0,11.4c0.3,0.3,0.6,0.5,0.9,0.8c-0.3,0.2-0.6,0.5-0.9,0.8c-3.1,3.1-3.1,8.2,0,11.4
	c3.1,3.1,8.2,3.1,11.4,0C498.6,123.4,498.6,118.3,495.5,115.2z"/>
</g>
<circle class="st41" cx="489.8" cy="121" r="4.7"/>
<path class="st1" d="M580.6,207c-2,0-3.9-0.8-5.3-2.2c-2.9-2.9-2.9-7.7,0-10.7c1.4-1.4,3.3-2.2,5.3-2.2c2,0,3.9,0.8,5.3,2.2
	c2.9,2.9,2.9,7.7,0,10.7C584.6,206.2,582.7,207,580.6,207C580.6,207,580.6,207,580.6,207z"/>
<circle class="st23" cx="489.7" cy="108" r="4.7"/>
<path class="st1" d="M572.7,170.4c-3.8-3.9-4.1-9.9-0.9-14.1c-3.1-4.3-2.6-10.3,1.3-14.1c4.3-4.2,11.2-4.1,15.4,0.2
	c3.8,3.9,4.1,9.9,0.9,14.1c3.1,4.3,2.6,10.3-1.3,14.1C583.8,174.8,576.9,174.7,572.7,170.4z"/>
<path class="st17" d="M586.2,157.2c-0.3-0.3-0.6-0.5-0.9-0.8c0.3-0.2,0.6-0.5,0.9-0.7c3.2-3.1,3.2-8.2,0.1-11.4
	c-3.1-3.2-8.2-3.2-11.4-0.1c-3.2,3.1-3.2,8.2-0.1,11.4c0.3,0.3,0.6,0.5,0.9,0.8c-0.3,0.2-0.6,0.5-0.9,0.7c-3.2,3.1-3.2,8.2-0.1,11.4
	c3.1,3.2,8.2,3.2,11.4,0.1C589.3,165.5,589.3,160.4,586.2,157.2z"/>
<circle class="st41" cx="580.5" cy="162.9" r="4.7"/>
<circle class="st22" cx="580.7" cy="150" r="4.7"/>
<circle class="st22" cx="580.8" cy="135.2" r="4.7"/>
<path class="st1" d="M598.9,576.5c3.8,3.9,4.1,9.9,0.9,14.1c3.1,4.3,2.6,10.3-1.3,14.1c-4.3,4.2-11.2,4.1-15.4-0.2
	c-3.8-3.9-4.1-9.9-0.9-14.1c-3.1-4.3-2.6-10.3,1.3-14.1C587.9,572.1,594.8,572.2,598.9,576.5z"/>
<path class="st17" d="M585.4,589.7c0.3,0.3,0.6,0.5,0.9,0.8c-0.3,0.2-0.6,0.5-0.9,0.7c-3.2,3.1-3.2,8.2-0.1,11.4
	c3.1,3.2,8.2,3.2,11.4,0.1c3.2-3.1,3.2-8.2,0.1-11.4c-0.3-0.3-0.6-0.5-0.9-0.8c0.3-0.2,0.6-0.5,0.9-0.7c3.2-3.1,3.2-8.2,0.1-11.4
	c-3.1-3.2-8.2-3.2-11.4-0.2C582.4,581.4,582.3,586.5,585.4,589.7z"/>
<circle class="st41" cx="591.1" cy="584" r="4.7"/>
<circle class="st24" cx="591" cy="596.9" r="4.7"/>
<path class="st1" d="M581.5,461.7c5.4,0,10,4,10.8,9.2c5.2,0.8,9.2,5.3,9.2,10.7c0,6-4.9,10.9-10.9,10.9c-5.4,0-10-4-10.8-9.2
	c-5.2-0.8-9.2-5.3-9.2-10.7C570.6,466.6,575.5,461.7,581.5,461.7z"/>
<path class="st17" d="M581.5,480.6c0.4,0,0.8,0,1.2-0.1c-0.1,0.4-0.1,0.8-0.1,1.2c0,4.4,3.6,8,8,8c4.4,0,8-3.6,8-8c0-4.4-3.6-8-8-8
	c-0.4,0-0.8,0-1.2,0.1c0.1-0.4,0.1-0.8,0.1-1.2c0-4.4-3.6-8-8-8c-4.4,0-8,3.6-8,8C573.5,477,577.1,480.6,581.5,480.6z"/>
<circle class="st24" cx="590.6" cy="481.7" r="4.7"/>
<circle class="st39" cx="581.5" cy="472.6" r="4.7"/>
<circle class="st24" cx="590.9" cy="626.9" r="4.7"/>
<circle class="st24" cx="590.9" cy="682.4" r="4.7"/>
<circle class="st24" cx="590.9" cy="693.6" r="4.7"/>
<circle class="st24" cx="590.9" cy="704.7" r="4.7"/>
<path class="st1" d="M572,594.9c3.8,3.8,4.2,9.9,1.1,14.1c3.1,4.3,2.8,10.3-1.1,14.1c-4.2,4.2-11.1,4.2-15.4,0
	c-3.8-3.8-4.2-9.9-1.1-14.1c-3.1-4.3-2.8-10.3,1.1-14.1C560.9,590.7,567.8,590.7,572,594.9z"/>
<path class="st17" d="M558.7,608.3c0.3,0.3,0.6,0.5,0.9,0.8c-0.3,0.2-0.6,0.5-0.9,0.8c-3.1,3.1-3.1,8.2,0,11.4
	c3.1,3.1,8.2,3.1,11.4,0c3.1-3.1,3.1-8.2,0-11.4c-0.3-0.3-0.6-0.5-0.9-0.7c0.3-0.2,0.6-0.5,0.9-0.8c3.1-3.1,3.1-8.2,0-11.4
	c-3.1-3.1-8.2-3.1-11.4,0C555.5,600.1,555.5,605.2,558.7,608.3z"/>
<path class="st30" d="M561,612.2c-1.8,1.8-1.8,4.8,0,6.7c1.8,1.8,4.8,1.8,6.7,0c1.8-1.8,1.8-4.8,0-6.7
	C565.8,610.3,562.9,610.3,561,612.2z"/>
<circle class="st41" cx="564.4" cy="602.6" r="4.7"/>
<circle class="st42" cx="564.5" cy="630.5" r="4.7"/>
<path class="st1" d="M543.9,649c3.9-3.8,9.9-4.2,14.1-1c4.3-3.1,10.3-2.7,14.1,1.1c4.2,4.2,4.2,11.1,0,15.4
	c-3.9,3.8-9.9,4.2-14.1,1.1c-4.3,3.1-10.3,2.7-14.1-1.1C539.7,660.1,539.7,653.2,543.9,649z"/>
<path class="st17" d="M557.3,662.4c0.3-0.3,0.5-0.6,0.8-0.9c0.2,0.3,0.5,0.6,0.7,0.9c3.1,3.1,8.2,3.2,11.4,0c3.1-3.1,3.2-8.2,0-11.4
	c-3.1-3.1-8.2-3.2-11.4,0c-0.3,0.3-0.5,0.6-0.8,0.9c-0.2-0.3-0.5-0.6-0.7-0.9c-3.1-3.1-8.2-3.2-11.4,0c-3.1,3.1-3.2,8.2,0,11.4
	C549.1,665.5,554.2,665.5,557.3,662.4z"/>
<circle class="st37" cx="564.5" cy="656.7" r="4.7"/>
<circle class="st38" cx="551.6" cy="656.7" r="4.7"/>
<circle class="st42" cx="564.5" cy="641.6" r="4.7"/>
<circle class="st42" cx="564.5" cy="671.5" r="4.7"/>
<circle class="st42" cx="564.5" cy="682.7" r="4.7"/>
<circle class="st42" cx="564.5" cy="693.8" r="4.7"/>
<circle class="st42" cx="564.5" cy="705" r="4.7"/>
<circle class="st24" cx="590.9" cy="638.1" r="4.7"/>
<circle class="st20" cx="451.1" cy="616.5" r="4.7"/>
<circle class="st20" cx="451.1" cy="627.5" r="4.7"/>
<circle class="st20" cx="451.1" cy="605.6" r="4.7"/>
<circle class="st20" cx="451.1" cy="653.7" r="4.7"/>
<path class="st1" d="M443.4,700.7c-3.8-3.8-4.2-9.9-1.1-14.1c-3.1-4.3-2.8-10.3,1.1-14.1c4.2-4.2,11.1-4.2,15.4,0
	c3.8,3.8,4.2,9.9,1.1,14.1c3.1,4.3,2.8,10.3-1.1,14.1C454.5,704.9,447.6,704.9,443.4,700.7z"/>
<path class="st17" d="M456.8,687.3c-0.3-0.3-0.6-0.5-0.9-0.8c0.3-0.2,0.6-0.5,0.9-0.8c3.1-3.1,3.1-8.2,0-11.4
	c-3.1-3.1-8.2-3.1-11.4,0c-3.1,3.1-3.1,8.2,0,11.4c0.3,0.3,0.6,0.5,0.9,0.7c-0.3,0.2-0.6,0.5-0.9,0.8c-3.1,3.1-3.1,8.2,0,11.4
	c3.1,3.1,8.2,3.1,11.4,0C459.9,695.5,459.9,690.4,456.8,687.3z"/>
<circle class="st20" cx="451.1" cy="680.1" r="4.7"/>
<circle class="st40" cx="451.1" cy="693" r="4.7"/>
<path class="st1" d="M292.5,592.7c3.8,3.9,4.2,9.9,1,14.1c3.1,4.3,2.7,10.3-1.2,14.1c-4.3,4.2-11.2,4.2-15.4-0.1
	c-3.8-3.9-4.1-9.9-1-14.1c-3.1-4.3-2.7-10.3,1.2-14.1C281.4,588.4,288.3,588.4,292.5,592.7z"/>
<path class="st17" d="M279.1,606c0.3,0.3,0.6,0.5,0.9,0.8c-0.3,0.2-0.6,0.5-0.9,0.7c-3.2,3.1-3.2,8.2-0.1,11.4
	c3.1,3.2,8.2,3.2,11.4,0.1c3.2-3.1,3.2-8.2,0.1-11.4c-0.3-0.3-0.6-0.5-0.9-0.8c0.3-0.2,0.6-0.5,0.9-0.7c3.2-3.1,3.2-8.2,0.1-11.4
	c-3.1-3.2-8.2-3.2-11.4-0.1C276,597.8,276,602.8,279.1,606z"/>
<circle class="st23" cx="284.7" cy="613.2" r="4.7"/>
<circle class="st41" cx="284.8" cy="600.3" r="4.7"/>
<circle class="st40" cx="451.1" cy="708.2" r="4.7"/>
<circle class="st40" cx="451.1" cy="719.3" r="4.7"/>
<circle class="st40" cx="451.1" cy="730.4" r="4.7"/>
<circle class="st40" cx="451.1" cy="741.5" r="4.7"/>
<circle class="st20" cx="422.6" cy="201.1" r="4.7"/>
<circle class="st21" cx="250" cy="229.4" r="4.7"/>
<circle class="st21" cx="266.9" cy="246.3" r="4.7"/>
<circle class="st21" cx="284.7" cy="264.1" r="4.7"/>
<path class="st1" d="M226,216c-5.4,0-10-4-10.8-9.2c-5.2-0.8-9.2-5.3-9.2-10.7c0-6,4.9-10.9,10.9-10.9c5.4,0,10,4,10.8,9.2
	c5.2,0.8,9.2,5.3,9.2,10.8C236.8,211.1,231.9,216,226,216z"/>
<path class="st17" d="M225.9,197c-0.4,0-0.8,0-1.2,0.1c0.1-0.4,0.1-0.8,0.1-1.2c0-4.4-3.6-8-8-8c-4.4,0-8,3.6-8,8c0,4.4,3.6,8,8,8
	c0.4,0,0.8,0,1.2-0.1c-0.1,0.4-0.1,0.8-0.1,1.2c0,4.4,3.6,8,8,8c4.4,0,8-3.6,8-8C234,200.6,230.4,197,225.9,197z"/>
<circle class="st41" cx="226" cy="205.1" r="4.7"/>
<circle class="st21" cx="217" cy="195.9" r="4.7"/>
<path class="st1" d="M250.9,564.8c0,5.4-4.1,9.9-9.3,10.7c-0.8,5.2-5.4,9.2-10.8,9.2c-6,0-10.9-4.9-10.8-10.9
	c0-5.4,4.1-9.9,9.3-10.7c0.8-5.2,5.4-9.2,10.8-9.2C246.1,553.9,250.9,558.8,250.9,564.8z"/>
<path class="st17" d="M232,564.7c0,0.4,0,0.8,0.1,1.2c-0.4-0.1-0.8-0.1-1.2-0.1c-4.4,0-8.1,3.6-8.1,8c0,4.4,3.6,8.1,8,8.1
	c4.4,0,8.1-3.6,8.1-8c0-0.4,0-0.8-0.1-1.2c0.4,0.1,0.8,0.1,1.2,0.1c4.4,0,8.1-3.6,8.1-8c0-4.4-3.6-8.1-8-8.1
	C235.6,556.7,232,560.3,232,564.7z"/>
<circle class="st22" cx="230.9" cy="573.8" r="4.7"/>
<circle class="st41" cx="240" cy="564.8" r="4.7"/>
<path class="st1" d="M164.2,418.8c-5.4,0-9.9-4.1-10.7-9.3c-5.2-0.8-9.2-5.4-9.2-10.8c0-6,4.9-10.9,10.9-10.8
	c5.4,0,9.9,4.1,10.7,9.3c5.2,0.8,9.2,5.4,9.2,10.8C175.1,414,170.2,418.8,164.2,418.8z"/>
<path class="st17" d="M164.3,399.9c-0.4,0-0.8,0-1.2,0.1c0.1-0.4,0.1-0.8,0.1-1.2c0-4.4-3.6-8.1-8-8.1c-4.4,0-8.1,3.6-8.1,8
	c0,4.4,3.6,8.1,8,8.1c0.4,0,0.8,0,1.2-0.1c-0.1,0.4-0.1,0.8-0.1,1.2c0,4.4,3.6,8.1,8,8.1c4.4,0,8.1-3.6,8.1-8
	C172.4,403.5,168.8,399.9,164.3,399.9z"/>
<circle class="st34" cx="155.2" cy="398.8" r="4.7"/>
<circle class="st41" cx="164.3" cy="407.9" r="4.7"/>
<text transform="matrix(1 0 0 1 120.7266 198.6982)" class="st43 st44">ОКТЯБРЬСКОЕ ПОЛЕ</text>
<text transform="matrix(1 0 0 1 240.4088 99.8237)" class="st43 st44">РЕЧНОЙ ВОКЗАЛ</text>
<text transform="matrix(1 0 0 1 231.0377 111.3237)" class="st43 st44">ВОДНЫЙ СТАДИОН</text>
<text transform="matrix(1 0 0 1 249.5557 125.5737)" class="st43 st44">ВОЙКОВСКАЯ</text>
<text transform="matrix(1 0 0 1 281.0738 208.8242)" class="st43 st44">СОКОЛ</text>
<text transform="matrix(1 0 0 1 264.5699 219.8662)" class="st43 st44">АЭРОПОРТ</text>
<text transform="matrix(1 0 0 1 353.3243 226.6572)" class="st43 st44">САВЕЛОВСКАЯ</text>
<text transform="matrix(1 0 0 1 353.2696 215.1572)" class="st43 st44">ДМИТРОВСКАЯ</text>
<text transform="matrix(1 0 0 1 343.3433 203.6572)" class="st43 st44">ТИМИРЯЗЕВСКАЯ</text>
<text transform="matrix(1 0 0 1 367.3428 171.6572)" class="st43 st44">П-РАЗУМОВСКАЯ</text>
<text transform="matrix(1 0 0 1 396.1182 101.9072)" class="st43 st44">ОТРАДНОЕ</text>
<text transform="matrix(1 0 0 1 395.7047 90.8237)" class="st43 st44">БИБИРЕВО</text>
<text transform="matrix(1 0 0 1 390.2086 79.7402)" class="st43 st44">АЛТУФЬЕВО</text>
<circle class="st24" cx="461.5" cy="208.4" r="4.7"/>
<circle class="st24" cx="461.5" cy="197.3" r="4.7"/>
<circle class="st24" cx="461.5" cy="186.3" r="4.7"/>
<text transform="matrix(1 0 0 1 273.9019 230.9077)" class="st43 st44">ДИНАМО</text>
<g>
    <rect x="167.8" y="225.4" class="st4" width="75.5" height="10.2"/>
    <text transform="matrix(1 0 0 1 172.0625 233.1367)" class="st43 st44">ПОЛЕЖАЕВСКАЯ</text>
</g>
<text transform="matrix(1 0 0 1 219.1856 249.6582)" class="st43 st44">БЕГОВАЯ</text>
<text transform="matrix(1 0 0 1 204.0635 267.4912)" class="st43 st44">УЛИЦА 1905 ГОДА</text>
<text transform="matrix(1 0 0 1 233.3463 287.0742)" class="st43 st44">БАРРИКАДНАЯ</text>
<circle class="st21" cx="216.9" cy="147.5" r="4.7"/>
<circle class="st21" cx="216.9" cy="158.6" r="4.7"/>
<circle class="st21" cx="216.9" cy="181" r="4.7"/>
<circle class="st21" cx="216.9" cy="169.8" r="4.7"/>
<text transform="matrix(1 0 0 1 158.9405 138.9897)" class="st43 st44">ПЛАНЕРНАЯ</text>
<circle class="st21" cx="216.9" cy="136.3" r="4.7"/>
<text transform="matrix(1 0 0 1 147.7217 150.2397)" class="st43 st44">СХОДНЕНСКАЯ</text>
<text transform="matrix(1 0 0 1 158.2178 161.4897)" class="st43 st44">ТУШИНСКАЯ</text>
<text transform="matrix(1 0 0 1 171.6475 172.7397)" class="st43 st44">СПАРТАК</text>
<text transform="matrix(1 0 0 1 158.1084 183.9897)" class="st43 st44">ЩУКИНСКАЯ</text>
<text transform="matrix(1 0 0 1 496.7886 189.5322)" class="st43 st44">РИЖСКАЯ</text>
<text transform="matrix(1 0 0 1 496.6754 200.6572)" class="st43 st44">АЛЕКСЕЕВСКАЯ</text>
<text transform="matrix(1 0 0 1 496.8824 178.4072)" class="st43 st44">ВДНХ</text>
<text transform="matrix(1 0 0 1 384.8775 130.5732)" class="st43 st44">ВЛАДЫКИНО</text>
<circle class="st23" cx="489.9" cy="70.9" r="4.7"/>
<circle class="st23" cx="489.9" cy="82" r="4.7"/>
<circle class="st23" cx="489.9" cy="93.2" r="4.7"/>
<text transform="matrix(1 0 0 1 496.8843 84.5322)" class="st43 st44">БАБУШСКИНСКАЯ</text>
<text transform="matrix(1 0 0 1 496.9898 95.6572)" class="st43 st44">СВИБЛОВО</text>
<text transform="matrix(1 0 0 1 497.189 73.4072)" class="st43 st44">МЕДВЕДКОВО</text>
<text transform="matrix(1 0 0 1 500.4556 110.3237)" class="st43 st44">БОТАНИЧЕСКИЙ САД</text>
<text transform="matrix(1 0 0 1 586.4429 137.7407)" class="st43 st44">БУЛЬВАР РОССОКОВСКОГО</text>
<text transform="matrix(1 0 0 1 591.2554 152.1572)" class="st43 st44">ЧЕРКИЗОВСКАЯ</text>
<g>
    <rect x="585.1" y="172.4" class="st4" width="134.1" height="11"/>
    <text transform="matrix(1 0 0 1 587.7164 180.9072)" class="st43 st44">ПРЕОБРАЖЕНСКАЯ ПЛОЩАДЬ</text>
</g>
<g>
    <rect x="585.1" y="193.4" class="st4" width="134.1" height="11.7"/>
    <text transform="matrix(1 0 0 1 586.9156 202.4072)" class="st43 st44">КРАСНОСЕЛЬВСКАЯ</text>
</g>
<g>
    <rect x="585.1" y="183.5" class="st4" width="134.1" height="10"/>
    <text transform="matrix(1 0 0 1 587.7242 191.6572)" class="st43 st44">СОКОЛЬНИКИ</text>
</g>
<circle class="st22" cx="580.6" cy="177.8" r="4.7"/>
<circle class="st22" cx="580.5" cy="199.6" r="4.7"/>
<circle class="st22" cx="580.8" cy="188.7" r="4.7"/>
<path class="st1" d="M659.4,275.6c-3.8-3.9-4.1-9.9-0.9-14.1c-3.1-4.3-2.6-10.3,1.3-14.1c4.3-4.2,11.2-4.1,15.4,0.2
	c3.8,3.9,4.1,9.9,0.9,14.1c3.1,4.3,2.6,10.3-1.3,14.1C670.5,279.9,663.6,279.9,659.4,275.6z"/>
<path class="st17" d="M673,262.4c-0.3-0.3-0.6-0.5-0.9-0.8c0.3-0.2,0.6-0.5,0.9-0.7c3.2-3.1,3.2-8.2,0.1-11.4
	c-3.1-3.2-8.2-3.2-11.4-0.1c-3.2,3.1-3.2,8.2-0.1,11.4c0.3,0.3,0.6,0.5,0.9,0.8c-0.3,0.2-0.6,0.5-0.9,0.7c-3.2,3.1-3.2,8.2-0.1,11.4
	c3.1,3.2,8.2,3.2,11.4,0.2C676,270.6,676.1,265.5,673,262.4z"/>
<circle class="st41" cx="667.2" cy="268.1" r="4.7"/>
<circle class="st33" cx="667.4" cy="255.1" r="4.7"/>
<path class="st1" d="M667.4,312.8c-2,0-3.9-0.8-5.3-2.2c-2.9-2.9-2.9-7.7,0-10.7c1.4-1.4,3.3-2.2,5.3-2.2c2,0,3.9,0.8,5.3,2.2
	c2.9,2.9,2.9,7.7,0,10.7C671.3,312,669.5,312.8,667.4,312.8C667.4,312.8,667.4,312.8,667.4,312.8z"/>
<circle class="st33" cx="667.3" cy="229.3" r="4.7"/>
<circle class="st33" cx="667.3" cy="217.9" r="4.7"/>
<circle class="st33" cx="667.3" cy="240.4" r="4.7"/>
<text transform="matrix(1 0 0 1 677.7095 257.4907)" class="st43 st44">ПАРТИЗАНСКАЯ</text>
<g>
    <rect x="668.7" y="299.7" class="st4" width="138.1" height="11.3"/>
    <text transform="matrix(1 0 0 1 673.5533 308.1157)" class="st43 st44">БАУМАНСКАЯ</text>
</g>
<g>
    <rect x="668.7" y="288.7" class="st4" width="138.1" height="10.9"/>
    <text transform="matrix(1 0 0 1 673.647 297.0532)" class="st43 st44">ЭЛЕКТРОЗАВОДСКАЯ</text>
</g>
<g>
    <rect x="668.7" y="277.9" class="st4" width="138.1" height="10.8"/>
    <text transform="matrix(1 0 0 1 673.858 285.9907)" class="st43 st44">СЕМЕНОВСКАЯ</text>
</g>
<circle class="st33" cx="667.4" cy="305.1" r="4.7"/>
<circle class="st33" cx="667.3" cy="282.9" r="4.7"/>
<circle class="st33" cx="667.3" cy="294.1" r="4.7"/>
<text transform="matrix(1 0 0 1 673.5298 243.3237)" class="st43 st44">ИЗМАЙЛОВСКАЯ</text>
<text transform="matrix(1 0 0 1 673.6353 232.2036)" class="st43 st44">ПЕРВОМАЙСКАЯ</text>
<text transform="matrix(1 0 0 1 673.5298 220.8237)" class="st43 st44">ЩЕЛКОВСКАЯ</text>
<path class="st1" d="M682.8,378.7c3.8-3.9,9.9-4.2,14.1-1.1c4.2-3.1,10.3-2.8,14.1,1c4.3,4.2,4.3,11.1,0,15.4
	c-3.8,3.9-9.9,4.2-14.1,1.1c-4.2,3.1-10.3,2.8-14.1-1C678.6,389.9,678.6,383,682.8,378.7z"/>
<path class="st17" d="M696.2,392.1c0.3-0.3,0.5-0.6,0.7-0.9c0.2,0.3,0.5,0.6,0.8,0.9c3.1,3.1,8.2,3.1,11.4,0c3.1-3.1,3.1-8.2,0-11.4
	c-3.1-3.1-8.2-3.1-11.4,0c-0.3,0.3-0.5,0.6-0.7,0.9c-0.2-0.3-0.5-0.6-0.8-0.9c-3.1-3.1-8.2-3.1-11.4,0c-3.1,3.1-3.1,8.2,0,11.4
	C688,395.2,693.1,395.2,696.2,392.1z"/>
<circle class="st41" cx="690.4" cy="386.4" r="4.7"/>
<circle class="st35" cx="703.4" cy="386.4" r="4.7"/>
<circle class="st35" cx="728.9" cy="349.7" r="4.7"/>
<circle class="st35" cx="728.9" cy="338.3" r="4.7"/>
<circle class="st35" cx="728.9" cy="360.8" r="4.7"/>
<text transform="matrix(1 0 0 1 713.4703 388.5742)" class="st43 st44">ШОССЕ ЭНТУЗИАСТОВ</text>
<text transform="matrix(1 0 0 1 735.9312 363.6992)" class="st43 st44">ПЕРОВО</text>
<text transform="matrix(1 0 0 1 735.8375 352.3242)" class="st43 st44">НОВОГИРЕЕВО</text>
<text transform="matrix(1 0 0 1 736.2359 340.9492)" class="st43 st44">НОВОКОСИНО</text>
<path class="st1" d="M640.8,394.2c-2,0-3.9-0.8-5.3-2.2c-2.9-2.9-2.9-7.7,0-10.7c1.4-1.4,3.3-2.2,5.3-2.2c2,0,3.9,0.8,5.3,2.2
	c2.9,2.9,2.9,7.7,0,10.7C644.7,393.4,642.8,394.2,640.8,394.2C640.8,394.2,640.8,394.2,640.8,394.2z"/>
<circle class="st35" cx="640.9" cy="386.8" r="4.7"/>
<circle class="st21" cx="716.2" cy="684.7" r="4.7"/>
<circle class="st20" cx="451.1" cy="576.3" r="4.7"/>
<circle class="st20" cx="451.1" cy="665" r="4.7"/>
<text transform="matrix(1 0 0 1 723.6929 609.5732)" class="st43 st44">ВОЛГОГРАДСКИЙ ПРОСПЕКТ</text>
<text transform="matrix(1 0 0 1 723.6929 654.1289)" class="st43 st44">ВЫХИНО</text>
<text transform="matrix(1 0 0 1 723.6929 643.1851)" class="st43 st44">РЯЗАНСКИЙ ПРОСПЕКТ</text>
<text transform="matrix(1 0 0 1 723.6929 665.5923)" class="st43 st44">ЛЕРМОНТОВСКИЙ ПРОСПЕКТ</text>
<text transform="matrix(1 0 0 1 723.6929 676.5356)" class="st43 st44">ЖУЛЕБИНО</text>
<text transform="matrix(1 0 0 1 723.6929 687.7402)" class="st43 st44">КОТЕЛЬНИКИ</text>
<text transform="matrix(1 0 0 1 723.6929 631.7202)" class="st43 st44">КУЗЬМИНКИ</text>
<text transform="matrix(1 0 0 1 723.6929 620.5166)" class="st43 st44">ТЕКСТИЛЬЩИКИ</text>
<text transform="matrix(1 0 0 1 529.3599 501.7397)" class="st43 st44">ПАВЕЛЕЦКАЯ</text>
<text transform="matrix(1 0 0 1 462.1929 530.0732)" class="st43 st44">СЕРПУХОВСКАЯ</text>
<text transform="matrix(1 0 0 1 566.6929 326.7402)" class="st43 st44">КУРСКАЯ</text>
<text transform="matrix(1 0 0 1 545.6939 273.4067)" class="st43 st44">КОМСОМОЛЬСКАЯ</text>
<text transform="matrix(1 0 0 1 298.0259 398.0737)" class="st43 st44">КИЕВСКАЯ</text>
<text transform="matrix(1 0 0 1 602.6929 599.4067)" class="st43 st44">ДУБРОВКА</text>
<text transform="matrix(1 0 0 1 600.0269 696.4067)" class="st43 st44">БОРИСОВО</text>
<text transform="matrix(1 0 0 1 601.0259 685.0737)" class="st43 st44">МАРЬИНО</text>
<text transform="matrix(1 0 0 1 599.0259 674.0737)" class="st43 st44">БРАТИСЛАВСКАЯ</text>
<text transform="matrix(1 0 0 1 598.6929 662.7397)" class="st43 st44">ЛЮБЛИНО</text>
<text transform="matrix(1 0 0 1 599.6929 652.7397)" class="st43 st44">ВОЛЖСКАЯ</text>
<text transform="matrix(1 0 0 1 600.3589 641.7397)" class="st43 st44">ПЕЧАТНИКИ</text>
<text transform="matrix(1 0 0 1 600.0259 630.7407)" class="st43 st44">КОЖУХОВСКАЯ</text>
<text transform="matrix(1 0 0 1 599.5269 706.6567)" class="st43 st44">ШИПИЛОВО</text>
<text transform="matrix(1 0 0 1 594.2769 720.6567)" class="st43 st44">ЗЯБЛИКОВО</text>
<text transform="matrix(1 0 0 1 517.8619 696.5039)" class="st43 st44">ОРЕХОВО</text>
<text transform="matrix(1 0 0 1 509.5259 685.3516)" class="st43 st44">ЦАРИЦЫНО</text>
<text transform="matrix(1 0 0 1 479.7213 674.1987)" class="st43 st44">КАНТЕМИРОВСКАЯ</text>
<text transform="matrix(1 0 0 1 489.4429 659.2397)" class="st43 st44">КАШИРСКАЯ</text>
<g>
    <rect x="492.3" y="636.3" class="st4" width="66" height="11.1"/>
    <text transform="matrix(1 0 0 1 494.6929 644.1147)" class="st43 st44">КОЛОМЕНСКАЯ</text>
</g>
<g>
    <rect x="505.3" y="625.2" class="st4" width="54" height="11.1"/>
    <text transform="matrix(1 0 0 1 507.8589 633.3647)" class="st43 st44">ТЕХНОПАРК</text>
</g>
<g>
    <rect x="479.6" y="610.2" class="st4" width="75.5" height="10.2"/>
    <text transform="matrix(1 0 0 1 481.6509 618.4907)" class="st43 st44">АВТОЗАВОДСКАЯ</text>
</g>
<text transform="matrix(1 0 0 1 482.5884 707.6567)" class="st43 st44">ДОМОДЕДОВСКАЯ</text>
<text transform="matrix(1 0 0 1 467.9019 720.9067)" class="st43 st44">КРАСНОГВАРДЕЙСКАЯ</text>
<text transform="matrix(1 0 0 1 334.8101 579.1982)" class="st43 st44">НАХИМОВСКИЙ ПРОСПЕКТ</text>
<text transform="matrix(1 0 0 1 399.3804 567.8164)" class="st43 st44">НАГОРНАЯ</text>
<text transform="matrix(1 0 0 1 384.6617 556.6948)" class="st43 st44">НАГАТИНСКАЯ</text>
<text transform="matrix(1 0 0 1 401.3179 545.5732)" class="st43 st44">ТУЛЬСКАЯ</text>
<text transform="matrix(1 0 0 1 357.1929 593.3232)" class="st43 st44">СЕВАСТОПОЛЬСКАЯ</text>
<text transform="matrix(1 0 0 1 378.4039 608.1982)" class="st43 st44">ЧЕРТАНОВСКАЯ</text>
<text transform="matrix(1 0 0 1 411.8257 619.4424)" class="st43 st44">ЮЖНАЯ</text>
<text transform="matrix(1 0 0 1 399.0328 630.6865)" class="st43 st44">ПРАЖСКАЯ</text>
<text transform="matrix(1 0 0 1 328.7047 656.9287)" class="st43 st44">УЛИЦА АКАДЕМИКА ЯНГЕЛЯ</text>
<text transform="matrix(1 0 0 1 409.3297 668.1724)" class="st43 st44">АННИНО</text>
<text transform="matrix(1 0 0 1 313.1929 682.6973)" class="st43 st44">БУЛЬВАР ДМИТРИЯ ДОНСКОГО</text>
<text transform="matrix(1 0 0 1 348.5679 710.8223)" class="st43 st44">УЛИЦА СКОБЕЛЕВСКАЯ</text>
<text transform="matrix(1 0 0 1 321.6929 722.0723)" class="st43 st44">БУЛЬВАР ДМИТРИЯ УШАКОВА</text>
<text transform="matrix(1 0 0 1 365.0679 733.5723)" class="st43 st44">УЛИЦА ГОРЧАКОВА</text>
<text transform="matrix(1 0 0 1 363.3179 744.4473)" class="st43 st44">БУНИНСКАЯ АЛЛЕЯ</text>
<text transform="matrix(1 0 0 1 226.4405 665.7095)" class="st43 st44">КАЛУЖСКАЯ</text>
<text transform="matrix(1 0 0 1 191.8975 654.3516)" class="st43 st44">НОВЫЕ ЧЕРЕМУШКИ</text>
<text transform="matrix(1 0 0 1 210.6084 643.2534)" class="st43 st44">ПРОФСОЮЗНАЯ</text>
<text transform="matrix(1 0 0 1 203.6788 631.8232)" class="st43 st44">АКАДЕМИЧЕСКАЯ</text>
<text transform="matrix(1 0 0 1 237.2295 709.9346)" class="st43 st44">ЯСЕНЕВО</text>
<text transform="matrix(1 0 0 1 218.1006 698.7432)" class="st43 st44">ТЕПЛЫЙ СТАН</text>
<text transform="matrix(1 0 0 1 231.4678 687.6445)" class="st43 st44">КОНЬКОВО</text>
<text transform="matrix(1 0 0 1 237.4209 676.5464)" class="st43 st44">БЕЛЯЕВО</text>
<g>
    <rect x="270.8" y="531.4" class="st4" width="68.5" height="10.2"/>
    <text transform="matrix(1 0 0 1 273.3106 539.8652)" class="st43 st44">ШАБОЛОВСКАЯ</text>
</g>
<g>
    <rect x="175" y="607.3" class="st4" width="101" height="11.9"/>
    <text transform="matrix(1 0 0 1 177.1519 616.1563)" class="st43 st44">ЛЕНИНСКИЙ ПРОСПЕКТ</text>
</g>
<text transform="matrix(1 0 0 1 193.8184 724.1563)" class="st43 st44">НОВОЯСЕНЕВСКАЯ</text>
<circle class="st23" cx="284.7" cy="706.9" r="4.7"/>
<path class="st1" d="M298.6,514c-2,0-3.9-0.8-5.3-2.2c-2.9-2.9-2.9-7.7,0-10.7c1.4-1.4,3.3-2.2,5.3-2.2c2,0,3.9,0.8,5.3,2.2
	c2.9,2.9,2.9,7.7,0,10.7C302.5,513.2,300.6,514,298.6,514L298.6,514z"/>
<circle class="st22" cx="298.6" cy="506.5" r="4.7"/>
<circle class="st22" cx="160.4" cy="700.6" r="4.7"/>
<circle class="st22" cx="160.4" cy="711.8" r="4.7"/>
<text transform="matrix(1 0 0 1 85.8624 680.7837)" class="st43 st44">ЮГО-ЗАПАДНАЯ</text>
<text transform="matrix(1 0 0 1 45.1475 669.6309)" class="st43 st44">ПРОСПЕКТ ВЕРНАДСКОГО</text>
<text transform="matrix(1 0 0 1 93.5499 658.4771)" class="st43 st44">УНИВЕРСИТЕТ</text>
<text transform="matrix(1 0 0 1 73.1983 647.3232)" class="st43 st44">ВОРОБЬЕВЫ ГОРЫ</text>
<text transform="matrix(1 0 0 1 101.8741 714.2432)" class="st43 st44">САЛАРЬЕВО</text>
<text transform="matrix(1 0 0 1 101.5616 703.0908)" class="st43 st44">РУМЯНЦЕВО</text>
<text transform="matrix(1 0 0 1 102.6006 691.937)" class="st43 st44">ТРОПАРЕВО</text>
<text transform="matrix(1 0 0 1 230.3101 507.1982)" class="st43 st44">ФРУНЗЕНСКАЯ</text>
<circle class="st32" cx="121.6" cy="342.2" r="4.7"/>
<circle class="st32" cx="121.6" cy="353.2" r="4.7"/>
<circle class="st32" cx="121.6" cy="364.4" r="4.7"/>
<path class="st1" d="M129.2,323.4c-3.8,3.8-9.9,4.2-14.1,1.1c-4.3,3.1-10.3,2.8-14.1-1.1c-4.2-4.2-4.2-11.1,0-15.4
	c3.8-3.8,9.9-4.2,14.1-1.1c4.3-3.1,10.3-2.8,14.1,1.1C133.5,312.3,133.5,319.2,129.2,323.4z"/>
<path class="st17" d="M115.9,310c-0.3,0.3-0.5,0.6-0.8,0.9c-0.2-0.3-0.5-0.6-0.7-0.9c-3.1-3.1-8.2-3.2-11.4,0
	c-3.1,3.1-3.2,8.2,0,11.4c3.1,3.1,8.2,3.1,11.4,0c0.3-0.3,0.5-0.6,0.8-0.9c0.2,0.3,0.5,0.6,0.7,0.9c3.1,3.1,8.2,3.2,11.4,0
	c3.1-3.1,3.2-8.2,0-11.4C124.1,306.9,119,306.9,115.9,310z"/>
<circle class="st33" cx="108.7" cy="315.7" r="4.7"/>
<circle class="st34" cx="121.5" cy="315.7" r="4.7"/>
<circle class="st25" cx="108.6" cy="300.8" r="4.7"/>
<text transform="matrix(1 0 0 1 17.5943 236.3237)" class="st43 st44">ПЯТНИЦКОЕ ШОССЕ</text>
<text transform="matrix(1 0 0 1 66.1177 247.5737)" class="st43 st44">МИТИНО</text>
<text transform="matrix(1 0 0 1 25.9849 258.8237)" class="st43 st44">ВОЛОКОЛАМСКАЯ</text>
<text transform="matrix(1 0 0 1 54.5943 270.0737)" class="st43 st44">МЯКИНИНО</text>
<text transform="matrix(1 0 0 1 56.6607 281.3237)" class="st43 st44">СТРОГИНО</text>
<text transform="matrix(1 0 0 1 44.9551 292.3237)" class="st43 st44">КРЫЛАТСКОЕ</text>
<text transform="matrix(1 0 0 1 41.209 303.5737)" class="st43 st44">МОЛОДЕЖНАЯ</text>
<text transform="matrix(1 0 0 1 41.7208 318.2402)" class="st43 st44">КУНЦЕВСКАЯ</text>
<text transform="matrix(1 0 0 1 2.9986 363.9067)" class="st43 st44">СЛАВЯНСКИЙ БУЛЬВАР</text>
<text transform="matrix(1 0 0 1 63.2764 440.5737)" class="st43 st44">ПАРК ПОБЕДЫ</text>
<text transform="matrix(1 0 0 1 195.4043 399.5732)" class="st43 st44">СТУДЕНЧЕСКАЯ</text>
<g>
    <rect x="127.8" y="326" class="st4" width="86.1" height="10.7"/>
    <text transform="matrix(1 0 0 1 129.0132 334.0742)" class="st43 st44">ПИОНЕРСКАЯ</text>
</g>
<g>
    <rect x="127.8" y="336.7" class="st4" width="86.1" height="10.6"/>
    <text transform="matrix(1 0 0 1 128.9078 345.3345)" class="st43 st44">ФИЛЕВСКИЙ ПАРК</text>
</g>
<g>
    <rect x="127.8" y="347.2" class="st4" width="86.1" height="10.2"/>
    <text transform="matrix(1 0 0 1 127.5015 356.0742)" class="st43 st44">БАГРАТИОНОВСКАЯ</text>
</g>
<circle class="st32" cx="121.6" cy="331" r="4.7"/>
<text transform="matrix(1 0 0 1 129.2125 367.0742)" class="st43 st44">ФИЛИ</text>
<g>
    <rect x="77.2" y="394.1" class="st4" width="68.5" height="10.2"/>
    <text transform="matrix(1 0 0 1 85.649 402.2407)" class="st43 st44">КУТУЗОВСКАЯ</text>
</g>
<circle class="st42" cx="571" cy="733" r="4.7"/>
<text transform="matrix(1 0 0 1 493.0884 735.6567)" class="st43 st44">АЛМА-АТИНСКАЯ</text>
<text transform="matrix(1 0 0 1 241.6983 481.4897)" class="st43 st44">ПАРК КУЛЬТУРЫ</text>
<text transform="matrix(1 0 0 1 493.1929 589.0732)" class="st43 st44">ВАРШАВСКАЯ</text>
<path class="st1" d="M684.2,442.6c-2,0-3.9-0.8-5.3-2.2c-2.9-2.9-2.9-7.7,0-10.7c1.4-1.4,3.3-2.2,5.3-2.2c2,0,3.9,0.8,5.3,2.2
	c2.9,2.9,2.9,7.7,0,10.7C688.1,441.8,686.2,442.6,684.2,442.6L684.2,442.6z"/>
<circle class="st41" cx="684.2" cy="435.2" r="4.7"/>
<text transform="matrix(1 0 0 1 692.5836 438.5742)" class="st43 st44">НИЖЕГОРОДСКАЯ</text>
<path class="st1" d="M684.7,329.6c-2,0-3.9-0.8-5.3-2.2c-2.9-2.9-2.9-7.7,0-10.7c1.4-1.4,3.3-2.2,5.3-2.2c2,0,3.9,0.8,5.3,2.2
	c2.9,2.9,2.9,7.7,0,10.7C688.6,328.8,686.7,329.6,684.7,329.6L684.7,329.6z"/>
<circle class="st41" cx="684.7" cy="322.2" r="4.7"/>
<text transform="matrix(1 0 0 1 690.5132 325.0742)" class="st43 st44">СОКОЛИНАЯ ГОРА</text>
<text transform="matrix(1 0 0 1 677.5914 271.2412)" class="st43 st44">ИЗМАЙЛОВО</text>
<path class="st1" d="M536.4,144.6c-2,0-3.9-0.8-5.3-2.2c-2.9-2.9-2.9-7.7,0-10.7c1.4-1.4,3.3-2.2,5.3-2.2c2,0,3.9,0.8,5.3,2.2
	c2.9,2.9,2.9,7.7,0,10.7C540.3,143.8,538.5,144.6,536.4,144.6C536.4,144.6,536.4,144.6,536.4,144.6z"/>
<circle class="st41" cx="536.5" cy="137.2" r="4.7"/>
<path class="st1" d="M349.7,132.1c-2,0-3.9-0.8-5.3-2.2c-2.9-2.9-2.9-7.7,0-10.7c1.4-1.4,3.3-2.2,5.3-2.2c2,0,3.9,0.8,5.3,2.2
	c2.9,2.9,2.9,7.7,0,10.7C353.6,131.3,351.7,132.1,349.7,132.1C349.7,132.1,349.7,132.1,349.7,132.1z"/>
<circle class="st41" cx="349.7" cy="124.7" r="4.7"/>
<text transform="matrix(1 0 0 1 163.0313 574.4902)" class="st43 st44">СПОРТИВНАЯ</text>
<g>
    <rect x="248.3" y="131.4" class="st4" width="59.3" height="10.8"/>
    <text transform="matrix(1 0 0 1 250.6612 140.0742)" class="st43 st44">БАЛТИЙСКАЯ</text>
</g>
<path class="st1" d="M183.4,281.7c-2,0-3.9-0.8-5.3-2.2c-2.9-2.9-2.9-7.7,0-10.7c1.4-1.4,3.3-2.2,5.3-2.2c2,0,3.9,0.8,5.3,2.2
	c2.9,2.9,2.9,7.7,0,10.7C187.3,281,185.4,281.7,183.4,281.7C183.4,281.7,183.4,281.7,183.4,281.7z"/>
<circle class="st41" cx="183.4" cy="274.3" r="4.7"/>
<text transform="matrix(1 0 0 1 128.981 277.2407)" class="st43 st44">ШЕЛЕПИХА</text>
<rect x="280.1" y="323.7" class="st4" width="59.2" height="11"/>
<text transform="matrix(1 0 0 1 282.1797 332.1157)" class="st43 st44">ПУШКИНСКАЯ</text>
<text transform="matrix(1 0 0 1 591.2554 165.8237)" class="st43 st44">ЛОКОМОТИВ</text>
<rect x="632" y="475.9" class="st4" width="75.5" height="10.7"/>
<text transform="matrix(1 0 0 1 601.6929 484.0732)" class="st43 st44">КРЕСТЬЯНСКАЯ ЗАСТАВА</text>
<g>
    <rect x="131.7" y="310.4" class="st4" width="58.6" height="10.6"/>
    <text transform="matrix(1 0 0 1 132.8873 318.7407)" class="st43 st44">КУНЦЕВСКАЯ</text>
</g>
</svg>
